/* XPM */
static char *result[] = {
/* columns rows colors chars-per-pixel */
"64 79 214 2 ",
"   c #000000",
".  c #0D0300",
"X  c #010C08",
"o  c #110300",
"O  c #170900",
"+  c #021111",
"@  c #381208",
"#  c #2E1307",
"$  c #1C2D34",
"%  c #0F3338",
"&  c #272929",
"*  c #3A3B3C",
"=  c #293334",
"-  c #4C1A03",
";  c #531A01",
":  c #6E1A00",
">  c #6F1700",
",  c #721B00",
"<  c #791F02",
"1  c #5D2604",
"2  c #632500",
"3  c #6E2500",
"4  c #6D2A01",
"5  c #682A0A",
"6  c #732401",
"7  c #792300",
"8  c #742801",
"9  c #7A2902",
"0  c #712D0A",
"q  c #672D13",
"w  c #682C12",
"e  c #6B2617",
"r  c #6B3211",
"t  c #673011",
"y  c #64320D",
"u  c #503E3C",
"i  c #4B392B",
"p  c #39433C",
"a  c #3E3F45",
"s  c #3A3E49",
"d  c #243841",
"f  c #403E44",
"g  c #334345",
"h  c #374444",
"j  c #295956",
"k  c #27666F",
"l  c #247475",
"z  c #484848",
"x  c #61615F",
"c  c #75625E",
"v  c #566467",
"b  c #646A68",
"n  c #833004",
"m  c #9B4D22",
"M  c #A24F25",
"N  c #AF5D36",
"B  c #AD5D38",
"V  c #B15D36",
"C  c #B25F3D",
"Z  c #A3582E",
"A  c #AF613A",
"S  c #AF6037",
"D  c #BC6835",
"F  c #B3643C",
"G  c #BC663C",
"H  c #B66A3D",
"J  c #BB693D",
"K  c #B76536",
"L  c #C3653B",
"P  c #C3693C",
"I  c #CB6C3C",
"U  c #C56737",
"Y  c #D56B37",
"T  c #D96D36",
"R  c #D46D3C",
"E  c #DB6E3B",
"W  c #CF713B",
"Q  c #D4703E",
"!  c #DA743C",
"~  c #FA7E3E",
"^  c #8E5643",
"/  c #855945",
"(  c #9A5C51",
")  c #A15E41",
"_  c #A86C4C",
"`  c #B66741",
"'  c #BB6743",
"]  c #B66942",
"[  c #BB6943",
"{  c #BC6749",
"}  c #B66A4A",
"|  c #BB6C4A",
" . c #BF7147",
".. c #BA714C",
"X. c #A86D55",
"o. c #BF7052",
"O. c #AD7355",
"+. c #B87B69",
"@. c #C26641",
"#. c #C36A44",
"$. c #CB6D44",
"%. c #C36C4A",
"&. c #CF6D49",
"*. c #D46D44",
"=. c #D86F44",
"-. c #D36E49",
";. c #D86D4A",
":. c #CC7145",
">. c #CD724B",
",. c #C67248",
"<. c #D47144",
"1. c #DD7A44",
"2. c #D3734A",
"3. c #D9744C",
"4. c #D87549",
"5. c #FA7E40",
"6. c #E17C44",
"7. c #3C837D",
"8. c #FB833E",
"9. c #F7823F",
"0. c #AB8668",
"q. c #B4846F",
"w. c #B38475",
"e. c #F68445",
"r. c #FE8444",
"t. c #FB8844",
"y. c #F6844B",
"u. c #FC854A",
"i. c #F3884D",
"p. c #FC894A",
"a. c #F78853",
"s. c #F28E53",
"d. c #368989",
"f. c #3D948E",
"g. c #539695",
"h. c #559A9D",
"j. c #5B969D",
"k. c #4F9796",
"l. c #698E93",
"z. c #64959D",
"x. c #6D969D",
"c. c #6E989D",
"v. c #6A9898",
"b. c #749296",
"n. c #71969E",
"m. c #7A959B",
"M. c #71999F",
"N. c #7B989B",
"B. c #549CA3",
"V. c #5C9AA3",
"C. c #4595A0",
"Z. c #6D96A1",
"A. c #639BA4",
"S. c #6C98A2",
"D. c #6795A7",
"F. c #7196A2",
"G. c #7099A0",
"H. c #7A99A3",
"J. c #4BA6A6",
"K. c #53A4A8",
"L. c #4DADB8",
"P. c #56B8BB",
"I. c #4EBABA",
"U. c #68B3B8",
"Y. c #61B3B8",
"T. c #68AAB0",
"R. c #47BCC5",
"E. c #6FB3C8",
"W. c #54C3C4",
"Q. c #5AC6C6",
"!. c #56C8C5",
"~. c #57C7C8",
"^. c #5CC6CA",
"/. c #5AC9C9",
"(. c #58C9C7",
"). c #4ED4CE",
"_. c #59C4D1",
"`. c #58D2D9",
"'. c #4BC1C1",
"]. c #63C7CC",
"[. c #62D5D4",
"{. c #67D9D8",
"}. c #64C9D1",
"|. c #58DBE5",
" X c #57F3E8",
".X c #4DFCF5",
"XX c #46FEFD",
"oX c #4DFDFC",
"OX c #4FF7F8",
"+X c #5AFAF5",
"@X c #5BF7FC",
"#X c #52FCFC",
"$X c #5CFBFB",
"%X c #55F9F3",
"&X c #5CEBEF",
"*X c #6DE9EC",
"=X c #6BF6EF",
"-X c #65F2EC",
";X c #63F5F4",
":X c #60F3FE",
">X c #6AF5F8",
",X c #72FBFD",
"<X c #77F6FF",
"1X c #849E9B",
"2X c #ABA49D",
"3X c #A7A49F",
"4X c #A2A4A4",
"5X c #ACA4A4",
"6X c #A8A7A9",
"7X c #B0A2A2",
"8X c #8BF7F7",
"9X c #FFFFF7",
"0X c #FFFFF9",
"qX c None",
/* pixels */
"qXqXqXqXqXqXqXqXqXqXqXqXqXqXqXqXqXqXqXqXqXqXqXqXqXqXqX                    qXqXqXqXqXqXqXqXqXqXqXqXqXqXqXqXqXqXqXqXqXqXqXqXqXqXqX",
"qXqXqXqXqXqXqXqXqXqXqXqXqXqXqXqXqXqXqXqXqXqXqX        >X;X;X;X>X;X;X>X;X;X        qXqXqXqXqXqXqXqXqXqXqXqXqXqXqXqXqXqXqXqXqXqXqX",
"qXqXqXqXqXqXqXqXqXqXqXqXqXqXqXqXqXqXqXqXqXqXqX        oX$X$X+X-X;X+X$X+XoX        qXqXqXqXqXqXqXqXqXqXqXqXqXqXqXqXqXqXqXqXqXqXqX",
"qXqXqXqXqXqXqXqXqXqXqXqXqXqXqXqXqXqXqXqX      oXoXoXXXoXx.x.n.Z.c.c.S.A.oXXXoXoXoX    qXqXqXqXqXqXqXqXqXqXqXqXqXqXqXqXqXqXqXqXqX",
"qXqXqXqXqXqXqXqXqXqXqXqXqXqXqXqXqXqX    $XoX%XZ.c.c.c.Z..XA.x.Z.Z.S.*X#XF.Z.Z.S.D.oX#XX     qXqXqXqXqXqXqXqXqXqXqXqXqXqXqXqXqXqX",
"qXqXqXqXqXqXqXqXqXqXqXqXqXqXqX      oXoXoX$XS.G.c.c.c.F.#XV.Z.D.F.G.*X#Xz.M.n.Z.Z.Z.oX.X#X#X    * qXqXqXqXqXqXqXqXqXqXqXqXqXqXqX",
"qXqXqXqXqXqXqXqXqXqXqXqXqXqXqXd.f.f.R.]._.).[.x.S.M.c.c.l g g g g g k k Z.n.x.Z.Z./.].].}.}.d.d.7.b qXqXqXqXqXqXqXqXqXqXqXqXqXqX",
"qXqXqXqXqXqXqXqXqXqXqXqXqXqX  #X#X#XH.n.n.T..Xv.G.M.N.N.. .   .         M.H.H.F.x..XF.M.M.M.#XoXR.  qXqXqXqXqXqXqXqXqXqXqXqXqXqX",
"qXqXqXqXqXqXqXqXqXqXqXqXqX  #XXXE.v.v.c.c.c.S.XX        7 6 8 6 6 6 8 6       % oXF.F.c.x.M.x.oXoXoX  qXqXqXqXqXqXqXqXqXqXqXqXqX",
"qXqXqXqXqXqXqXqXqXqXqX    oXc.x.).oXS.S.c.H.    8 3 4 6 6 6 6 6 8 7 8 6 6 6 7 -     x.Z.n.n.oXZ.S.v..X  qXqXqXqXqXqXqXqXqXqXqXqX",
"qXqXqXqXqXqXqXqXqXqX  8X,Xz.S.c.A.D..X      9 4 3 6 6 7 y.G F F ` ` ` [ 6 6 6 6 4 6       #Xv.Z.x.v.D.%X+   qXqXqXqXqXqXqXqXqXqX",
"qXqXqXqXqXqXqXqXqXqX+ <X-XS.x.c.x.l.&X. . O 4 8 9 9 9 6 r.U [ ' ' [ [ [ 6 < , 9 6 6 .      Xx.x.x.x.Z. X% X qXqXqXqXqXqXqXqXqXqX",
"qXqXqXqXqXqXqXqXqX  oXC.x.c.x.Z.c.v.  6 6 6 6 6 [ >.2.6 u.L ' ' ' ' [ [ 6 u.E L 7 9 3 6 6   m.M.x.x.x.x.;X,X  qXqXqXqXqXqXqXqXqX",
"qXqXqXqXqXqXqXqXqX  XXoX+XZ.M.Z.$   6 6 6 n [ [ { >.<.6 r.L ' { ' ' [ [ 9 r.Q *.:.[ : 6 6 5   Z.x.x.x.XX.X,X  qXqXqXqXqXqXqXqXqX",
"qXqXqXqXqXqXqXqX  .XS.n.D.oXx.  ; 6 6 t.*.:.[ ] ' >.4.6 u.P ' ' ' ' ' [ 6 r.D I -.@.-.*.*.6 ,   $ Z.XXx.x.h.XX  qXqXqXqXqXqXqXqX",
"qXqXqXqXqXqXqXqX  oXx.F.D.'.d @ ; 6 7 e.<.2.' [ >.<.4.6 r.L ' ' ' ' ' } 4 r.D #.2.#.=.*.-.6 6 # # = R.F.x.V.XX. qXqXqXqXqXqXqXqX",
"qXqXqXqXqXqXqXqX  #Xx.x.n.x.  6 6 6 9 y.Q <.' [ *.*.3.3 r.L ' { [ [ [ | 6 r.D #.*.*.=.=.=.6 6 3 -   x.x.x.h.%X  qXqXqXqXqXqXqXqX",
"qXqXqXqXqXqX  j oXv.F.n.c.v.  3 m [ 9 y.<.<.Q [ <.:.` 6 u.L ' | <.[ [ [ 6 r.' { [ <.=.<.;.6 y.3 -   v.c.c.c.S.oX  b qXqXqXqXqXqX",
"qXqXqXqXqXqX  j #Xx.c.x.m.  7 6 m [ 7 e.P #.Q [ *.$.{ 6 r.L @.<.<.[ ' [ 8 u.D [ J <.<.#.G 7 p.3 3 6   l.c.c.Z.oX  x qXqXqXqXqXqX",
"qXqXqXqXqX  =X{.B.$X+XB.m.  6 [ | ] 7 e.[ #.Q [ -.$.{ 6 r.G #.<.<.[ ' [ 8 u.D ' [ <.=.#.[ < t.[ Z 6   n.*X X#XV.>Xg.  qXqXqXqXqX",
"qXqXqXqXqX  #X{.Z.>X<XA.1X. 6 ' [ ] 7 e.[ #.! J *.:.` 6 u.P [ <.<.[ [ [ 8 u.G ' ' $.<.#.] 6 r.J m 6 . m.8X>X;Xx.#Xg.  qXqXqXqXqX",
"qXqXqXqXqX  #X{.Z.S.x.    6 6 %.' [ 9 e.#.#.4.<.2.$.` 6 u.G #.Q Q [ { | 3 r.G { ' [ =.$.' 6 e.[ M 6 6   b.n.c.c.#Xg.  qXqXqXqXqX",
"qXqXqXqXqX  oX{.c.x.G.    6 J ' [ ] 9 e.[ ' [ <.G ' ' 7 r.G #.:.<.[ [ [ 8 u.G [ ' ' R @.[ < e.J @.[ 7   b.F.x.n.#Xg.  qXqXqXqXqX",
"qXqXqXqXqX  oX{.x.c.M.    6 ' ' ' [ 6 e.#.[ [ <.' ' ' 6 u.L @.*.=.[ [ | 6 r.G ' ' ' =.-.-.6 p.' [ [ 6   b.x.n.x.#Xg.  qXqXqXqXqX",
"qXqXqXqXz J.L.K.G.n.& @ - 6 ' { [ ] 6 e.#.[ [ -.J ' ' 6 r.G #.*.#.P J  .6 r.G [ ' ' =.<.;.< p.[ [ | 6 - & $ x.c.P.P.L.z qXqXqXqX",
"qXqXqXqX  oXA.x.n.x.X r 6 < ' ' ' [ 9 e.[ ' [ *.[ ' ' 6 u.I $.-.| <.[ | 8 u.G [ ' ' R *.=.< e.] { %., 6 .   z.S.v._.oX  qXqXqXqX",
"qXqXqXqX  oXoXoXoXoX  w , u.[ [ ' [ 9 e.[ J { [ ' ' G 6 r.E R <.[ <.#.[ 6 r.G [ ' ' =.=.*.< e.J ' [ [ 6 o   oXoXoX.XoX  qXqXqXqX",
"qXqXqXqX  oXc.c.S.Z.  r , r.] [ ' [ 6 r.[ [ ' ' ' ' ' 6 u.E >.[ [ <.%.[ 6 r.G [ ' ' *.=.-.< t.F ' ' [ 6 o   F.Z.Z.^.oX  qXqXqXqX",
"qXqXqXqX  oXb.c.M.x.  q , r.} [ ] [ 6 8.[ [ ' [ ' | ' 6 r.E 2.[ [ <.#.[ 9 r.D ' ' ' G { G < e.' ' ' [ 6 o   n.M.c.^..X  qXqXqXqX",
"qXqXqXqX  oXv.c.c.S.o 0 6 1.A F S A 6 ! G S F F F F B 6 1.U #.F ` J F ` 3 1.S F A F F F S 6 1.F F F F 6 O . F.n.c.^..X  qXqXqXqX",
"qXqXqXqX  oXc.c.M.Z.3 6 6 6 6 6 3 6 4 6 8 6 3 3 3 6 6 3 6 6 3 3 6 6 8 6 6 3 6 6 6 6 6 6 6 3 6 3 6 3 6 6 6 1 Z.G.M./.#X  qXqXqXqX",
"qXqXqXqX  oXc.c.x.6 r.r.u.u.u.r.r.r.r.r.r.r.t.r.5.r.r.r.r.r.r.r.r.u.5.r.u.u.u.r.u.r.r.r.r.r.r.r.u.r.r.u.u.a.6 x.Z.^.oX  qXqXqXqX",
"qXqXqXqX  oXXXoXoX3 r.I ' ' ' 5Xw.H ' ' ' ' ] 7XX.[ ' [ ' ' ' G 7X,.[ [ J [ G [ [ 5XH [ { { ' { +.2XJ G [ [ 6 #X#XoX#X  qXqXqXqX",
"qXqXqXqX  #XC.h.h.6 r.L ' ' ' _ } [ ' ' [ [ { _ } ' { ' [ { ' ` _ ` [ ' [ ' ' ' ' O.| [ ' { ' ' H _ { [ [  .6 V.j.`.oX  qXqXqXqX",
"qXqXqXqX  oXM.x.x.6 5.G ' ` ] [ ' ' [ [ [ [ ] ' ' ' [ ' ' G ] ' ' ' ' ' ' ' ' ` ' ' ' { ' ' ` [ ' ` ` ' ' ] 7 M.G.^.#X  qXqXqXqX",
"qXqXqXqX  oXM.c.Z.x.< 6 6 6 9 6 6 6 6 6 6 6 6 6 6 3 6 6 6 6 8 6 3 6 6 6 6 6 6 6 6 6 6 6 6 6 6 6 6 6 6 6 6 2 x.M.M.^.#X  qXqXqXqX",
"qXqXqXqX  oXc.c.c.x.  y 6 6 6 6 6 6 6 6 < 6 6 6 6 6 6 6 6 7 6 6 6 6 6 4 6 8 6 6 6 6 6 6 6 6 6 , 6 6 6 6 .   x.x.M.^.oX  qXqXqXqX",
"qXqXqXqX  oXz.c.c.c.  q , a.@.F ` ] < a.*.$.A ` F G [ 6 e.E 2.[ ` [ %.3.4 e.D F [ F ` F ] < p.' J 2.G 7 o   v.M.n.].OX  qXqXqXqX",
"qXqXqXqX  oXE.U.U.U.  q , u.J { | F 6 y.! =.$.[ ' ' #.6 t.T :.[ ' [ -.3.6 r.D [ ' ' ' ' ` 6 p.` #.*.[ 6 o   Y.Y.U.).oX  qXqXqXqX",
"qXqXqXqX  oX.XOX.X%X  w , u.] [ [ ' < e.<.$.<.' { [ [ 6 r.E 2.G [ [ $.4.6 r.H [ ' ' ' ' ` < p.J I <.[ 6 o   #X#X#X.X.X  qXqXqXqX",
"qXqXqXqX  oXx.x.Z.D.  w , r.] [ { G 6 e.@.@.<.[ ' ' #.6 r.E <.2.' [ &.3.6 r.D ' ' ' ' ` ` 6 u.2.<.<.-.6 o   Z.Z.Z.~.oX  qXqXqXqX",
"qXqXqXqX  oXv.x.c.Z.  t > r.H p ( [ , y.[ #.<.[ ' ' [ 6 8.U P <.' *.;.3.3 r.J ' [ ' [ ' ] < r.*.$.[ *.< o   x.n.n.~..X  qXqXqXqX",
"qXqXqXqX  oXx.x.c.Z.  w , r.u 4Xc i 6 e.[ %.=.<.' ' [ 6 r.U #.<.[ *.$.#.6 r.G ' { :.[ { ` 7 u.-.$.J 2.6 .   Z.x.x.^..X  qXqXqXqX",
"qXqXqXqX  oXv.x.M.Z.  w , r.p 6Xb g 6 e.[ [ <.*.[ ' | 6 r.L #.<.' W P ..6 r.K [ J *.J ' [ 7 p.<.$.J <.6 o   c.M.n.~.oX  qXqXqXqX",
"qXqXqXqX  .Xn.x.v.S.  w > r.h 5Xv s 6 ~ [ [ P *.J ' [ 6 r.P #.<.*.<.[ [ 8 r.H [ [ =.[ ' [ 6 u.<.$.[ <.6 o   c.x.x.~.oX  qXqXqXqX",
"qXqXqXqX  oXoXoXoXoX  w > r.} h Z ` 6 ~ [ [ [ <.=.,.%.6 r.L [ #.<.<.@.[ 6 r.K ' [ <.J ' ' 6 u.4.$.G <.< o   oXoXoXoX#X  qXqXqXqX",
"qXqXqXqX  oXV.j.z.A.  q , r.} a c C 6 u.[ [ [ G *.:.{ 6 r.U ' | <.<.@.[ 6 r.G ' [ <.[ [ ` : r.<.<.>.<.6 o   z.z.j.^..X  qXqXqXqX",
"qXqXqXqX  OXz.n.c.Z.  w , r.` a ^ G 6 u.[ [ [ [ -.&.%.3 r.U ' { R =.[ [ 6 r.K [ [ *.[ [ G 6 r.<.*.=.$.6 .   x.x.x.~.#X  qXqXqXqX",
"qXqXqXqX  .Xx.Z.c.Z.  w , r.] a ^ ' 6 ~ [ ' ' [ *.:.%.6 r.L [ #.R <.#.[ 3 r.D ` [ <.[ ] ` 6 r.<.=.<.[ 3 .   F.c.x.!.#X  qXqXqXqX",
"qXqXqXqX  oXx.c.S.S.  w , u.{ a ^ ] 6 ~ [ [ ' ' -.$.%.6 5.G ' %.<.<.[ [ 6 r.G ' J <.[ [ ] 3 r.H #.Q [ 6 o   c.c.S.~.oX  qXqXqXqX",
"qXqXqXqX  oXx.S.x.Z.  w , r.] h ^ ] 6 ~ [ { ' [ -.<.2.6 r.U ' | <.<.[ #.3 r.G [ [ <.[ [ [ 3 r.] #.<.[ 6 o   S.x.x.Q..X  qXqXqXqX",
"qXqXqXqX  oXoX@X@X@X  w , p.{ f ^ F 6 ~ [ [ ' ' [ :.<.8 r.L ' [ <.=.L [ 6 r.G #.=.*.*.@.] , r.] $.=.-.6 o   :X:X:X.X.X  qXqXqXqX",
"qXqXqXqX  oX@X@X:X@X  w , r...= c H 6 ~ [ ' ' ' ' :.<.6 r.L ' #.Q Q J [ 6 r.D @.<.<.<.#.` 6 r.H #.<.<.6 o   @X:X@X.X.X  qXqXqXqX",
"qXqXqXqX  oXv.c.M.n.  q , t.h 4Xb g 6 8.[ { ' [ ' 2.4.6 r.U { | <.<.#.[ 6 8.J @.*.<.=.#.] 3 r.] %.=.:.< o   x.x.x.^..X  qXqXqXqX",
"qXqXqXqX  oXv.x.M.S.  q , t.* 6Xb g 6 ~ [ [ ' ' ' >.3.6 u.L ' @.=.<.@.[ 3 r.G I <.<.=.#.[ 3 r.] $.*.[ 6 o   Z.c.S.!..X  qXqXqXqX",
"qXqXqXqX  oXx.x.M.x.  q , r.[ p / { 7 u.[ ' ' ' ' >.2.6 5.G ' { @.[ ' | 6 r.[ L :.@.*.$.] 6 r.H $.*.[ 6 o   F.c.c.W.oX  qXqXqXqX",
"qXqXqXqX  oXx.x.x.x.  w , u.[ / ) ` 6 e.[ ' ' ' ' >.3.6 r.G ' ' ' ' ' [ 4 r.U $.2.' =.$.` 6 r.] #.#.[ 6 o   Z.c.c.W.oX  qXqXqXqX",
"qXqXqXqX  oXZ.S.S.S.  w , u.J [ [ ] < e.#.' ' ' [ :.4.6 r.G [ ' ' ' ' ' 6 r.T <.-.G *.#.] : r.H [ [ [ 6 o   n.x.x.W..X  qXqXqXqX",
"qXqXqXqX  oX#XoXoX.X  w , u.G ' [ ' , e.{ @.' ' ' >.4.6 r.G ' ' ' [ ' ' 6 8.Y $.[ ' <.P [ 6 r.[ { { [ 6 o   oXoXoXoXoX  qXqXqXqX",
"qXqXqXqX  oXS.Z.S.Z.  q , u.H ' ' [ 6 e.[ [ ' [ [ :.=.6 5.G ' ' ' ' ' [ 6 r.Y $.[ ' *.;.*.7 p.F [ ' [ 6 .   Z.S.S.^..X  qXqXqXqX",
"qXqXqXqX  oXS.x.M.x.  w < u.` ' [ [ 6 e.[ [ ' ' 2.%.P 6 r.G { ' ' ' { { 6 8.Y <.<.' @.$.;.7 e.H ' ' [ 6 o   S.c.x.Q..X  qXqXqXqX",
"qXqXqXqX  oXz.x.x.F.  w , s.F B N S 6 i.G N ' ' G G G 6 i.V C V F N C F 6 i.$.L @.N C G &.6 s.F V N F 6 o   c.c.n.^.#X  qXqXqXqX",
"qXqXqXqX  oXz.c.M.c.6 6 6 6 6 6 6 6 6 6 6 6 6 3 6 6 3 3 6 3 6 6 6 6 6 8 6 8 6 6 3 6 6 3 3 6 3 6 7 6 6 6 6 2 S.n.x.^.oX  qXqXqXqX",
"qXqXqXqX  oXx.c.n.3 r.u.r.y.u.u.r.u.y.y.p.p.y.y.p.e.p.p.u.y.p.y.p.p.p.u.u.u.u.u.u.p.p.p.p.p.p.p.u.u.u.u.p.s.< S.n.^.oX  qXqXqXqX",
"qXqXqXqX  oXXXoX#X7 r.U [ [ [ 6Xq.[ J H J H ] 5XX.` [ ] [ [ [ ' 3X] [ ] J ] [ H [ 4X] ` [ [ ' ] +.4X| ] ] #.< XXoX.XoX  qXqXqXqX",
"qXqXqXqX  oXI.W.R.7 r.P { ' @.q.O.[ ' ' ' [ { q.O.' [ [ ' ' ' [ w.] [ [ [ [ [ [ [ 0.{ ' [ [ ' ' %.0.[ [ [ [ 6 I.P.|.oX  qXqXqXqX",
"qXqXqXqX  oXS.M.x.5 p.@.[ | | [ [ ..[ | } ..| [ [ [ | [ ..[ [ [ | [  .[ [ | | [ | | [ | [ ] [ ] | [ | ] [ | 2 n.Z.~..X  qXqXqXqX",
"qXqXqXqX  .Xx.c.x.x.3 6 6 6 6 6 8 6 6 6 6 9 6 6 6 6 6 6 6 6 8 6 8 6 6 6 8 6 8 6 8 6 6 6 6 8 6 9 8 6 6 6 3 1 F.S.Z.Q.#X  qXqXqXqX",
"qXqXqXqX  oXx.c.S.S.  e 8 8 6 6 6 6 6 6 6 6 6 6 6 6 9 6 4 6 6 6 6 6 6 6 6 6 6 6 6 6 6 6 6 6 6 6 6 6 6 6 .   c.c.c.~..X  qXqXqXqX",
"qXqXqXqX  oXx.S.F.S.  w > i.3.2.,.[ 6 y.,.[  .2.#.%.| 8 y.$.[ %.4.#.[  .6 a.L >.2.%.4.>.| 7 a.#.%.%.| 6 .   c.Z.S.~.#X  qXqXqXqX",
"qXqXqXqX  OXJ.K.K.K.  w : u.W 2.%.[ 7 y.[ #.[ 4.#.[ [ 6 r.P [ @.<.[ { | 6 5.' P 2.[ *.@.[ 6 p.[ { [ #.8 .   K.K.B.`.oX  qXqXqXqX",
"qXqXqXqX  oXXXoXoX#X  w , a.[ ;.&.[ 9 e.[ [ [ 4.[ [ [ 3 r.P J 2.R =.P #.6 u.G #.2.#.*.#.[ 6 u.[ @.' [ 6 .   oXoXoX#X#X  qXqXqXqX",
"qXqXqXqX  oXG.x.x.Z.  w , u.[ ;.P ' 9 e.[ [ [ <.@.{ [ 6 r.L [ <.' *.P [ 3 r.F [ @.2.<.#.[ < u.J ' ' [ 7 .   Z.x.x.^.oX  qXqXqXqX",
"qXqXqXqX  oXZ.c.M.Z.  w : u.] ;.*.$.9 9.J #.>.@.' ' #.4 r.L [ *.[ <.@.| 3 r.G ' L <.G [ [ 6 u.' { [ [ 6 .   F.c.x.^.#X  qXqXqXqX",
"qXqXqXqX  oXv.M.x.x.  w : u.[ %.$.<.9 9.[ #.<.' ' ' [ 3 r.W $.=.' *.*.>.4 r.F ' ' #.[ [ [ 6 p.' [ ' [ 6 o   Z.G.Z.^..X  qXqXqXqX",
"qXqXqXqX  oXS.x.S.S.  w > u.] } $.-.9 e.[ $.<.' ' ' #.3 r.E <.*.[ 2.*.4.6 r.' @.{ [ ' [ ] < p.{ ' { [ 6 o   F.c.c.^..X  qXqXqXqX",
"qXqXqXqX  oXG.c.v.v.  5 , r.[ [ [ [ 7 y.R &.' [ ' ' | 6 r.E >.[ [ [ %.3.6 r.F [ [ ' [ [ [ 6 y.@.[ [ @.6 o   c.v.x.^.#X  qXqXqXqX",
"qXqXqXqXqX                6 6 7 6 :   2 8 6 6 6 6 8 3   6 6 6 7 6 6 7 4   3 7 7 6 7 6 6 7   4 6 6 6 6                 qXqXqXqXqX",
"qXqXqXqXqXqXqXqXqXqXqXqXqXqXqXqXqXqXqXqXqXqXqXqXqXqXqXqXqXqXqX0X0X9X0XqXqXqXqXqXqXqXqXqXqXqXqXqXqXqXqXqXqXqXqXqXqXqXqXqXqXqXqXqX"
};
