/* XPM */
static char *result[] = {
/* columns rows colors chars-per-pixel */
"64 64 31 1 ",
"  c #1E2636",
". c #1F2837",
"X c #1F2738",
"o c #1F2838",
"O c #202737",
"+ c #202837",
"@ c #202739",
"# c #242B3C",
"$ c #272E40",
"% c #282F41",
"& c #2C3244",
"* c #2F3548",
"= c #31374A",
"- c #343A4D",
"; c #373D50",
": c #393E52",
"> c #3C4155",
", c #3F4458",
"< c #404257",
"1 c #42465A",
"2 c #45495E",
"3 c #484A5F",
"4 c #474A61",
"5 c #4A4C62",
"6 c #4E5066",
"7 c #4F5268",
"8 c #52546B",
"9 c #57586F",
"0 c #575971",
"q c #5C5C74",
"w c #636179",
/* pixels */
"52>>>:#%421<:-=#<32363<31-*33<&#22,:,:%%431<:-*#<51555<12-*53<%@",
"5,>>>=##>23<:=##31<>33<<1:#:5:O%4>:::-##<41<:-#%51<<33<<<:$:3;@$",
">:*&&&##=::::&##;><33<<>=%=*=%%#::=*&&o#=::::&@#::<55<<:-%=*=%%#",
"%%####OO#%%=*#@%&-<<-=&#&:<**34*#%##$#XX$%%%&#@%&=<<-*&%&:<&&25=",
"o:142:---%@$##&1<&#&#=>-11:*131&#:121:-;=&$$##&2:=%%&-:-11:*12<*",
"40864421<:*$@=85<-#-686><::=2<1&<q874211>:*#X=84<=#=588<<::*5<1&",
"86542421<<:=@:653<#*561>::*:131=865415211,:=#-723<%&553:::*:<51&",
"751,3414441-$%1133:#&;>-:*#=;:=<841,4514411;#%1153:#&;:-:*%=-:=<",
"22>>62<21<;%#%:<22,*##&*#.##*#.653,>62,222>##%>122,*&#%&#@#%&%#5",
",>>>51&&%$X@X&,,,,>>=##+.>575>&,1>>>32&&##+# &>>,,>,*#o.@-555<%<",
">-->-&#&%&%*X*<,,112,##+>6,33>&&>>=->###&&&*#&,>,<<2>## :8454:%%",
">---=-::;;=;$%,,,1562###6,>>>>#.>---&>>>--=-#&,,,1581*##61;:<:%#",
"&->*:<>;*%&&##:4126,>#.*7>&>>>*##--*>,>-*&&&##>11261-&.=8>=:::-=",
"##*&11:&$$#XXX%;,21>>.#4,>*>>>>>%#**,<>&###.. &-121>=##2,=-::::-",
">&##&&##$$$%::*%>,4,> >3**>>>>52>&##&&##&##&>>*&-221-#:5**:>:<43",
"2>*#@#-14:,664:&>,2,>.,>##>>>5542>*#.#-22>1652:&-122>#,-&&>><544",
"21=#&6082,6752>*&>,,>#>&**>>,44221*##6q82,576,,&*>11>#>***>>,222",
">&##3w93,,261,>&o*-*#.*##%>>,,,,>&#.6q94>,46,,>&#*=&#.####>>,12,",
"+++-w061,,4,>>**##%#*&&#.o%>>>>&#..>q06,>2,4,>==###&**&###&>>>>#",
"*,1-31>>,222,>>*#.#5096,>>*#&# .*,>>51>>,24,>>>=#.#5086,>>*###..",
"qw2#&*&->454,>:=#.>q9775,4,%o%>5qw2#**&*>,54,>>;#+,w8666241###>6",
"25& &&#-;:,,>:;$.-072,,2>>>>%47,15*.**$>>>,,>:=%+-962111>>>>#671",
",=.>61=#%&&%&%$X&62>>>>>>->=#,>>>= >7,&#&*&&%%#X&66>>>>>>>>##,>>",
"&#>7221>&%$$$$@$23>>>>>>==*%o*%$&+>74,,>&&##$$#%22>>>>,->#>##*##",
"#5q842>11>&**$X;3>>*11:-*#&#o$=%#6q652>,1>&&*$o:5,-:11>-######>#",
"&885,>:,,:>44*&4>>*>2>:=&##O=52*&982,>>,>:>44*&4;-->1>:=>#..>2>>",
"%52>>>,>>>,,,;&***&*==-*##+#,>;&#61,>>>>>:1<>;%=*&**==-=##..,>>&",
"#:>>;--**=-:;;%%####&&&&##-1>>>=#>>>>--===-::;%%#+##*&&&##>,>>*>",
"o&=*&&$o##$&*=%###.%>*&%&#31->>-#&==%&#o##%&==%@#&#&>*#%#&4>>>>>",
"##&%&%o*4,,;*$X$25>21>-##12>=,,=#o&%&$o=11<:*###22-12>-#$,,>*>>*",
"$,5,5,$,08071:=%>>-*-&&#;>-=>>>%$,6,4,$,98871>=%-:-=-&%#>>>*>>>#",
":74:,>%*5541,:,*.###%%%=&&&<,>=#>7,>,>%=7533<:>*##&#&%$-&##>>>>#",
"64<:<:$%5111:;*$:1<131>3<=&32>*#24>>>;$$531<:-*%:1<432<3<=&33<&@",
"5<:::=##<51<;=#$53<<33<<<>#>3>.*4>>>>-##:43<:=#$51<:33<<<:$:3:@#",
"::*%%&@#=::::%##;:133<>>-&=*=###>>*&&%#o=::::&@$::152<<:-%-*=%%$",
"%&$#$$@O%%%&&$#%&=<<-=*%#><&*55=o%##$$oX$%%%*@@%&=<<-=*%%:<&*23=",
"@:<41:;;-%$###&<<&%%&=>-2<>=12,##:,22>;;=&$$##&1<&%&&-:-<1:*<4<*",
"40874411::&$@=84<=#=687<>>>=2,1*,q8741,>>:*#@=84<=#*666<<<:=3<<*",
"965415111<:-@;8231%*361>>>&;,21*7754,5411,:=#;724:&&353:::*;<4<*",
"651,5515411-#&,233;##;;;-=#*>>=,842,55,5411;#%,255:#&;;;;*%*;<=:",
"44>>61,22,:&o%>,33>=%#%&..##*##652>>62,211>##%>,22,=%#%&$@#%%%#5",
",,>:52&&&#.#X&>><<>:=##@.>266>#21,:>32*&&#+#X*>>,,>>*#o.@=465:%4",
":;;::%#&%&%*#&,><112>## >62,5>#*>--:>###&*&*#&,>,,12>%# :8455:%%",
":;==*-:>:-==#&,,,<581&##6,>>>>##>-=-=->>--==#%>,,1562&##71;:<:%@",
"&-=*:,>:*&&&##:22351-&.*7>>>>>>#%--=>>>-*&&&##>21551:#.=7:=:::;=",
"##=*,1:&#%#XX.*-131>-##3>*#>*>>>%#=*,1>&###...&-121>=##5,=:::::-",
">*##&*##%##&:>&&-221-.-6*>>>>>42>&##&&##&##&:>*%-221: :5**:::<41",
"3:*# #-14><652>*-122>#1-&#>>>2555>&#.#-22><654>&-122>#,-&*>><554",
"21=#&6q8112862,**:,1>#-*&*>,,52221*##6q82,576,,&*>11>#-**&>>,222",
">&##5q83,1261,>&#*=*#.*##&>,,,,2>&#.6q94>,46,,>&#*=&#.&###>>1,11",
"###-qq61>122>-**##%%&*&#++&-,>>&#..>q06,>2,4,>==##&#**&###&>>>>#",
"&<<-42>>1122>>>-#.#5096,>>*##. .*,>>51>>,24,>>>=#.#5086,,>*###.#",
"qw1#**&-,,64>>>>##>q977522>###>6qw2#****>,54,>>;##,w8666241###>6",
"26& &&&=>>,>>>>##=082121>>>>#37415*.&*$>>>,,>:=%+=9621,,>>>>#571",
",=+>62&##&**&%. &55<::::>>--#>>>,= >7,*#&&&&%%#X&66>>>>>>>>##,>>",
"##>8221:*######.24,::<<;-**##-###+>64,,>&&##$$#%22>>>>>>>#>##*##",
"$5q644>,,,&**oo>4,;;11:-*%$#o$-%#6q652>,1>&&*$X:5>::11>-######>#",
"&074>>>,>>>,,>&,;;=,3::-&##X-42*&082,>>,>:>44*&4:-=>2>:=>#..>2>>",
"%52>>>,>>>,>>>&-*&%*=--=%#X#4:-*&32,>>>>:>1<>;&**&&=====##..>>>&",
"#>>>>==***>>>>$$##$%&%%&%o-1>:;*#>>>>--=*=;::;%$###%&&&&##>,>>>>",
"o&**&&#o###&&*$#$$#&:*%%$$4,;>>-#&==%&#o###&==%####&-=%%#&4>*>>>",
"$o&&&&#*12,:%$o#,4;,4>=$$,4>->>-#o&$&%o=21<:&###22:12,-#$,,>*>>*",
"%,5,5,#19887,>*$-;;**&%$=,;*;,>%$,6>4,$,98881>*%=:-=-=%#>>>*>>>$",
";74:,>%*6652,>>-X$%X#$$=%%%,,>;o;72>,>%=7543<:,=####o##-%##>>>>#"
};
