/* XPM */
static char *result[] = {
/* columns rows colors chars-per-pixel */
"64 64 247 2 ",
"   c #543509",
".  c #68350C",
"X  c #75370D",
"o  c #6C3913",
"O  c #763B14",
"+  c #752812",
"@  c #5D410C",
"#  c #79450D",
"$  c #655405",
"%  c #7C4A14",
"&  c #784A19",
"*  c #7D501D",
"=  c #71500A",
"-  c #7B6503",
";  c #7C5224",
":  c #6A4420",
">  c #776C32",
",  c #7C5A42",
"<  c #88340F",
"1  c #BB3B00",
"2  c #AB2A00",
"3  c #86480D",
"4  c #934C0B",
"5  c #96530D",
"6  c #834C13",
"7  c #8C4E19",
"8  c #864917",
"9  c #914E16",
"0  c #855115",
"q  c #8B5415",
"w  c #84531C",
"e  c #8A551B",
"r  c #8B591D",
"t  c #9C5C1B",
"y  c #965818",
"u  c #AD5110",
"i  c #986119",
"p  c #8E700B",
"a  c #A56618",
"s  c #B46D1B",
"d  c #AB7416",
"f  c #B87319",
"g  c #B16D09",
"h  c #844D25",
"j  c #8D5C24",
"k  c #8B5E2A",
"l  c #855726",
"z  c #925E23",
"x  c #985B26",
"c  c #914C35",
"v  c #B5592F",
"b  c #8D612D",
"n  c #956225",
"m  c #94642B",
"M  c #9C6A2C",
"N  c #9A6528",
"B  c #8C6232",
"V  c #8D663A",
"C  c #936733",
"Z  c #966932",
"A  c #9B6B33",
"S  c #9A6E3C",
"D  c #986737",
"F  c #9E733C",
"G  c #9E7136",
"H  c #80782D",
"J  c #A26E2C",
"K  c #A76822",
"L  c #A7722C",
"P  c #B77927",
"I  c #A37334",
"U  c #A3753B",
"Y  c #AB7B3C",
"T  c #A87838",
"R  c #B37C38",
"E  c #A06F32",
"W  c #CB5408",
"Q  c #D76905",
"!  c #C77A0A",
"~  c #C17914",
"^  c #D67409",
"/  c #E57904",
"(  c #E27B16",
")  c #CF7329",
"_  c #966F41",
"`  c #9B7445",
"'  c #967C58",
"]  c #8A7652",
"[  c #AB7E42",
"{  c #A47D4B",
"}  c #A67B45",
"|  c #AF7550",
" . c #A65B6A",
".. c #B36160",
"X. c #CD745D",
"o. c #AD9010",
"O. c #B6A814",
"+. c #BDA40C",
"@. c #B68E31",
"#. c #968202",
"$. c #D69907",
"%. c #C48617",
"&. c #CA9419",
"*. c #D59716",
"=. c #C98D0C",
"-. c #E98808",
";. c #E78A18",
":. c #EE941B",
">. c #DDA418",
",. c #D4AA0E",
"<. c #E4AC08",
"1. c #E9BC02",
"2. c #E5B606",
"3. c #E1AD1A",
"4. c #E6B719",
"5. c #CB8A24",
"6. c #D79929",
"7. c #D7843B",
"8. c #CA9535",
"9. c #CE8F31",
"0. c #EB9524",
"q. c #D7A627",
"w. c #DCAE35",
"e. c #E6A734",
"r. c #E9B02F",
"t. c #ECC302",
"y. c #EFC409",
"u. c #F4CC05",
"i. c #F8D51A",
"p. c #F1CB16",
"a. c #ECC928",
"s. c #F4CF30",
"d. c #9C835D",
"f. c #8A805C",
"g. c #AD8244",
"h. c #AC834C",
"j. c #B48A4C",
"k. c #B48547",
"l. c #AB8452",
"z. c #AE8855",
"x. c #A9875A",
"c. c #B38B54",
"v. c #B28D5A",
"b. c #BA8F56",
"n. c #BA935C",
"m. c #B5935C",
"M. c #BD914F",
"N. c #AA8B63",
"B. c #B18E62",
"V. c #B49364",
"C. c #BA9662",
"Z. c #BD9A65",
"A. c #B4956A",
"S. c #BB9B6C",
"D. c #B5986D",
"F. c #AE9674",
"G. c #B59A74",
"H. c #BB9D73",
"J. c #B49C79",
"K. c #B08F6E",
"L. c #BDA37C",
"P. c #BDA177",
"I. c #978C6D",
"U. c #D49B48",
"Y. c #C59758",
"T. c #CC924E",
"R. c #E89E50",
"E. c #DAA748",
"W. c #D9A857",
"Q. c #CCAA51",
"!. c #E6B449",
"~. c #E4A854",
"^. c #E6B856",
"/. c #C39D66",
"(. c #CF916D",
"). c #C3A26C",
"_. c #CBA46A",
"`. c #C3A373",
"'. c #C9A674",
"]. c #C2A57A",
"[. c #C4A97D",
"{. c #CBAC7B",
"}. c #D4AB75",
"|. c #D7B071",
" X c #E6B368",
".X c #E6B875",
"XX c #E9AD6A",
"oX c #F7D94A",
"OX c #F1CF52",
"+X c #FBE25B",
"@X c #EECA66",
"#X c #EDD556",
"$X c #B87985",
"%X c #B18D8E",
"&X c #BEA683",
"*X c #BEA98C",
"=X c #C68F98",
"-X c #C4AB84",
";X c #CAAD83",
":X c #C4AD8C",
">X c #C3A984",
",X c #C6B08D",
"<X c #CBB28C",
"1X c #CEB183",
"2X c #D5B788",
"3X c #C4AF92",
"4X c #C6B193",
"5X c #CAB493",
"6X c #CEB895",
"7X c #C6B49B",
"8X c #CAB69A",
"9X c #CDB99C",
"0X c #D1BC9C",
"qX c #D3BA94",
"wX c #E1BA83",
"eX c #E0BF93",
"rX c #CD92A7",
"tX c #CDBCA3",
"yX c #C6B7A1",
"uX c #D1BEA3",
"iX c #D8B2A1",
"pX c #CFACB7",
"aX c #DAC299",
"sX c #E6C387",
"dX c #E8C998",
"fX c #F3D78C",
"gX c #F9E38E",
"hX c #D4C1A5",
"jX c #D5C4AB",
"kX c #D9C7AD",
"lX c #DAC9AE",
"zX c #DBC6A4",
"xX c #D6C7B1",
"cX c #DACAB4",
"vX c #DCCDB9",
"bX c #D7C8B2",
"nX c #DED0BD",
"mX c #CFC1AB",
"MX c #E7CEAA",
"NX c #E6CCB5",
"BX c #EAD5B3",
"VX c #EAD2A8",
"CX c #FBECB6",
"ZX c #DEB8CA",
"AX c #EAD6C9",
"SX c #E7DBC9",
"DX c None",
/* pixels */
"DXDXDXDXDXDXDXDXDXDXDXDX_ B D ].DXDXDXDXDXDXDXDXDXDXDXDXDXDXDXDXDXDXDXDXDXDXDXDXDXDXDXDXDXDXDXDXDXDXDXDXDXDXDXDXDXDXDXDXDXDXDXDX",
"DXDXDXDXDXDXDXDXDXDXJ.V.c.[ U C.hXjX<XuXDXDXDXDXDXDXDXDXDXDXDXDXDXDXDXDXDXDXDXDXDXDXDXDXDXDXDXDXDXDXDXDXDXDXDXDXDXDXDXDXDXDXDXDX",
"DXDXDXDXDXDXDXDXG.l.F v.H.H.H.V.x.h.l.B.D.`.<XDXDXDXDXDXDXDXDXDXDXDXDXDXDXDXDXDXDXDXDXDXDXDXDXDXDXDXDXDXDXDXDXDXDXDXDXDXDXDXDXDX",
"DXDXDXDXDXDXDXV.F S l.S.H.*XxX9Xv.D I [ I Y {.kXjXcXDXDXDXDXDXDXDXDXDXDXDXDXDXDXDXDXDXDXDXDXDXDXDXDXDXDXDXDXDXDXDXDXDXDXDXDXDXDX",
"DXDXDXDXDXDX4XH.c.Z.tX8Xv.} :XuX8XC.j./.C.j.v.x.l.S.0XDXDXDXDXDXDXDXDXDXDXDXDXDXDXDXDXDXDXDXDXDXDXDXDXDXDXDXDXDXDXDXDXDXDXDXDXDX",
"DXDXDXDXDX4X].P.N._ G.J.v.U ].tX>Xh.E E S k N l.{ U l.;XzXDXDXDXDXDXDXDXDXDXDXDXDXDXDXDXDXDXDXDXDXDXDXDXDXDXDXDXDXDXDXDXDXDXDXDX",
"DXDXDXDXyX:X/.z.V l ; V D { G.B.N.{ m.B.k C V.L.H.C m j.S.>X8XDXDXDXDXDXDXDXDXDXDXDXDXDXDXDXDXDXDXDXDXDXDXDXDXDXDXDXDXDXDXDXDXDX",
"DXDXDX7XyX8X).v.l.; & B ; ; j U A @.z.z.} F ` z./.V.I } z N l.`.B.DXDXDXDXDXDXDXDXDXDXDXDXDXDXDXDXDXDXDXDXDXDXDXDXDXDXDXDXDXDXDX",
"DXDXDX7XmXmXhX-Xl.Z k : # & r U g.h.[ m.` j T 5X-XJ.` { S C Z } Z E /.DXDXDXDXDXDXDXDXDXDXDXDXDXDXDXDXDXDXDXDXDXDXDXDXDXDXDXDXDX",
"DXDX7X7XmXxXyX,Xc.j.b % * & n g.l b v.C.F l.Z.A._ l k C } h.n.h.j k Z A J DXDXDXDXDXDXDXDXDXDXDXDXDXDXDXDXDXDXDXDXDXDXDXDXDXDXDX",
"DXDX4X4XyX7X9X4XH.j.i n * * h.V.b j l._ n [ L.z.M m ` B.n.v.c.Z r h y J N [ DXDXDXDXDXDXDXDXDXDXDXDXDXDXDXDXDXDXDXDXDXDXDXDXDXDX",
"DXDX,X6X7X,XmXjX6Xn.T m w b P.v.Z z.V q i r z.B.S.z.l.` S k n [ C.V.T Z C k.n.DXDXDXDXDXDXDXDXDXDXDXDXDXDXDXDXDXDXDXDXDXDXDXDXDX",
"DX5X8X9X9X4XmXjX4X-XY 0 n k ` M b h.& # % & C v.S.{ B * = 3 c.4XqX<Xc.U A n E I Y.DXDXDXDXDXDXDXDXDXDXDXDXDXDXDXDXDXDXDXDXDXDXDX",
"DX6X9XS.-X5XhXyX7X9X-XD.h.n j M n h.r = * b A.S.C ; % 3 6 z S.&XN.h.].h.A } U T T _.MXDXDXDXDXDXDXDXDXDXDXDXDXDXDXDXDXDXDXDXDXDX",
"1X6X8X} P.-XhX5X[.9XyX:X[.h.J F G Z.@.b b A.P.G.Z A G G G h.S j k C.A.V l 0 n n J T n.'.DXDXDXDXDXDXDXDXDXDXDXDXDXDXDXDXDXDXDXDX",
";X0X0Xh.-X5XmXL.S.tX*XJ.J.h.B & M A.A.h.z.d.g.,X&X4X:Xl.V.g.G G `.8Xh.0 r A h.V.l.I Y R g./.DXDXDXDXDXDXDXDXDXDXDXDXDXDXDXDXDXDX",
"'.qX0X;X6XuXcX9X5XtXtX:X&Xx.: 3 @.` F Z ` l b P.*Xd.m M Z.n.G i T c.Z.I D.3XF.N.n.b.[ [ J Y dXDXDXDXDXDXDXDXDXDXDXDXDXDXDXDXDXDX",
"<X6XuXcXuXuXxXcXhX8X7XJ.&XV.n h.h.l 0 r k l F -Xx.r i m m j.g.E J [ Z.S.].A.x.@.b.T I c.[ k.}.qXaXDXDXDXDXDXDXDXDXDXDXDXDXDXDXDX",
",X5XuXvXxXbXbXxXjX8X:XH.&X,X[.4X*XD.C.h.b w Z.J.G G A n T 1XZ.[.].L.B.} } h.;X6XC.M U c.Y.'.'.b.b.Y.DXDXDXDXDXDXDXDXDXDXDXDXDXDX",
"DX<XjXkXjXvXvXxXcXbX7XyX:X7X8XtXtX*X4XP.M i v.Z r r i n M <X9XmXF.S } c.Z.j.1X[.S D T b.U T E x J T k.DXDXDXDXDXDXDXDXDXDXDXDXDX",
"DX:XuX0XkXvXcXcXvXjX8XuX7X7XyXtXmX7XhX[.S.M.G w n m q q h.bXmX7XS r b.9X4X'.S.P.S.`.v.Y E k.b.b.R E J F E DXDXDXDXDXDXDXDXDXDXDX",
"DX:X8X9XcXvXcXvXvX0X:XtXuXtXuXtXmXmX8X5X<X1Xh.r M 0 3 L 5X*X*Xl.m U [.4XZ.h.n j.8XK.k m U [ /.n./.'./.R R /.DXDXDXDXDXDXDXDXDXDX",
"DX>X<X6XhXjXbXvXjXuXuXuX9XxXuXxX8XhX5X:XhXaXh.% r m 0 A <X,XV.x.j.H.4XV.J ].C.k.A.b w l e m j.'.n.{.2X/.R Y.qXDXDXDXDXDXDXDXDXDX",
"DXDX8X9X;X<XvXcXbXjXxX9X5XtXuX9XmXmX-X,X9X<XP.M @.n M L g.H.B.v.S j U G M L._ j k m } F T { I c.2X2X}.0X>X2XdXAXDXDXDXDXDXDXDXDX",
"DXDX8XuX5X0XcXuX_.uXkXkXuXuXbXuXjXhX:X6X*X*XaXC.Z.@.@.b m S.G j e r i q z h.; n U j } U E j.k.'.H.h.l.{.'.}.}.NXSXDXDXDXDXDXDXDX",
"DXDX:X9XuXcXuX0X'.uXuXbXkXjXuXuXhXhX4XaXaX*XaXP.*XZ.m.{ M z.l % q q J i % q w Z g.C m A K R P t 5 5 u (.Y.T.eXwXBXSXDXDXDXDXDXDX",
"DXDXDXH.8XuX9X0XkX0X0XuXkXuX0XuXhXhXhXhXhX5XlX*X6X9X:Xg.@.l.& # # 0 m b ; & ; ` l.} D T._.P a P P P T.}.R.R.R.) ~.BXDXDXDXDXDXDX",
"DXDXDXG.:X8XuXuX6X9XuXkXcXkX5XbXcXlXjXjXhXaXhX5X8X*X:X;XL.h.% & # q r w w * B L.;X/.j._.NX/.9.2XW.) ) Q / / Q W ( e.fXDXDXDXDXDX",
"DXDXDXDXJ.4XyXuX9XuXuXNXvXtX;XlXlXlXhXlXhXhXhXhX>XG.5XhXL.L.Z.@.n % # w % * ` N.`.A a s 2XeX|.R.u W ..X.7./ / 1 W -.q.dXDXDXDXDX",
"DXDXDXDX] F.&X5X5X8XbXcXcX9X{.qXlXkXaXlXhXhXhX&X,X[.;XL.L.,X4XL.h.0 0 n r b B S E 5 5 T.W.U.0.) u v $XrX(./ W 2 1 ^ =.@XDXDXDXDX",
"DXDXDXDXDXDXJ.>X5X3XuXuXkXuXj.j.hXlXkXlXhXmXaXL.8X8XZ.Z.5X8XhX4XP.U i ` B k k g.t 5 s eXXX( -.) ....$XrX(.W W 2 u ^ 4.!.VXDXDXDX",
"DXDXDXDXDXDXDXF.>X5X,X0XuX9XP R hXhXhXhXaXhX*XaXhX8X).].hXhXmX*X&XZ.M b b n m Z.L a R.e.( / 0.v  .=XpX%XI.I 5 4 u g *.W.sXDXDXDX",
"DXDXDXDXDXDXDXDXK.&X>X5X9X6XM.].uXhX0X0XuXkX<X9XjX8XS.;XuXjXjX4X7X].n A T 5 @.,XT.XXwX/ -.:.) c  .rXZXpXf.H - - p #.o.k..XDXDXDX",
"DXDXDXDXDXDXDXDXDXd.l.>X:X4X6XhX0X0X0X0XuXuX9X<XuX5X{.0XuXkXuX7X6Xn.i S.`.L Y.jXMXfX0./ :.R.1 <  .rXZXpXf.> - - p #.o.L Q.dXDXDX",
"DXDXDXDXDXDXDXDXDXDX] G.*X:X9XhX0X;X9XjXzXjXcXuXhX0XuXcXkXxXjXuXhX{.).,XhX1XaXkXBXXX0.0.-.( 2 + c $XpXpX, $ $ $ $ - #.} 5. XDXDX",
"DXDXDXDXDXDXDXDXDXDXDX' J.*X*X7X9X0X0X0XjXlXcXcXaX6X5XcXbXjXbXcXvXxX6X5XhXaX2XcXdXXXe.XXW W h K t | $XpX, @   @ @ $ p Z %.E.DXDX",
"DXDXDXDXDXDXDXDXDXDXDXDXDXF.&X*X5XtXhX5X5XkX9XkXcXuX8XuXjXbXcXvXbXjXhXhXhX9XaXNX~.0.;.}.D 5 p =.q.&.E K.c o   o w = p s 5.^.DXDX",
"DXDXDXDXDXDXDXDXDXDXDXDXDXDXN.L.>X,XkX6X<XbXuXjXxXkXuXuXjXnXxXvXcXjXhXjXxXhXvXsX/ -.(.iXn.p @ o.r.q.K 8 9 l o O x y s 8.!.@XDXDX",
"DXDXDXDXDXDXDXDXDXDXDXDXDXDXDXd.P.&X9XyX9XjXuXuXbXuXkXbXnXnXlXbXcXcXhXjXbXaXBX X-.T.3X{.@.$   d q.w.8.e 8 9 & X x t 9.5.e. XDXDX",
"DXDXDXDXDXDXDXDXDXDXDXDXDXDXDXDXf.L.>X<X8XyXuX9XuX0XuXvXvXNXcXbXcXcXcXjXcXjXBX~.;.9.Q.O.#.  + t 6 5 b z D O 8 O r ) e.6.r.@XDXDX",
"DXDXDXDXDXDXDXDXDXDXDXDXDXDXDXDXDX' J.>X4X8X9XtXtX8X'.jXkXkXkXcXnXbXlXjXbXkXBX.X8.,.O.o.- X 7 A < 9 _ h D 9 t 9 u =.e.r.r.!.DXDX",
"DXDXDXDXDXDXDXDXDXDXDXDXDXDXDXDXDXDXDXJ.>X4X9X9XtX:X0X8XjXAXkXkXnXbXhXkXcXkXVXMXaXO.O.p O X 7 h x N 7 7 K s f ~ g &.!.r.!. XDXDX",
"DXDXDXDXDXDXDXDXDXDXDXDXDXDXDXDXDXDXDXDXF.-X,X4X8X5X8X-XtXcXhX<XcXcXtXbXNXMXeXNXaXO.p %.N O 8 o C J X 4 f %.~ ~ ! ;.5.r.s.s.DXDX",
"DXDXDXDXDXDXDXDXDXDXDXDXDXDXDXDXDXDXDXDXDXF.L.].L.4X5X,X9XuX9XuXbXcXtXhXuXeXwXZX2Xd d %.8 y 0 O D T 7 s W.W.6.5.5.) =.<.u.i.+XDX",
"DXDXDXDXDXDXDXDXDXDXDXDXDXDXDXDXDXDXDXDXDXDXd.V.Z.G.L.hXtXcXjXjXkXvXjX<X6X2X}.AX.Xo.a 3 < 9 8 O 4 a P ~.E.~.^.w.*.<.<.t.u.i.OXDX",
"DXDXDXDXDXDXDXDXDXDXDXDXDXDXDXDXDXDXDXDXDXDXDXDXN.F.H.4XtXxXtX9XjXvXbXhXaXaXY.iXY.5.h X k 9 5 y 5 4 8.!.>.6.r.4.4.1.1.2.p.4.DXDX",
"DXDXDXDXDXDXDXDXDXDXDXDXDXDXDXDXDXDXDXDXDXDXDXDXDX_ x.L.7XuXkXjXcXcXkXjXmXsXz a 7 t O O 7 3 a 9.5.f %.3.s.!.OXp.t.y.1.,.@.DXDXDX",
"DXDXDXDXDXDXDXDXDXDXDXDXDXDXDXDXDXDXDXDXDXDXDXDXDXDXDXd.L.:X9XjXjXkXbXxXhX{.z t < 8 o o y 4 u ~ !.e.$.2.i.p.+XOXt.r.8.DXDXDXDXDX",
"DXDXDXDXDXDXDXDXDXDXDXDXDXDXDXDXDXDXDXDXDXDXDXDXDXDXDXDXd.G.:XtX;X9XuXtXhX_.y y + 8 o X 9 @.E.E.!.3.2.t.i.+XoXOXq.DXDXDXDXDXDXDX",
"DXDXDXDXDXDXDXDXDXDXDXDXDXDXDXDXDXDXDXDXDXDXDXDXDXDXDXDXDXDX&X9X6X8X-X].9XT.5 7 o j h 3 t 9.E.E.3.t.t.u.i.+XOXQ.DXDXDXDXDXDXDXDX",
"DXDXDXDXDXDXDXDXDXDXDXDXDXDXDXDXDXDXDXDXDXDXDXDXDXDXDXDXDXDXDXJ.:X5X;X<X0XQ.3 # X K x K U.q.! $.1.t.t.p.p.a.DXDXDXDXDXDXDXDXDXDX",
"DXDXDXDXDXDXDXDXDXDXDXDXDXDXDXDXDXDXDXDXDXDXDXDXDXDXDXDXDXDXDXDXA.].5X,X{.Q.u 5 4 s ~ 6.q.3.,.1.t.t.1.y.O.DXDXDXDXDXDXDXDXDXDXDX",
"DXDXDXDXDXDXDXDXDXDXDXDXDXDXDXDXDXDXDXDXDXDXDXDXDXDXDXDXDXDXDXDXDXG.:X-X).W.f f T.U.6.!.!.@Xs.t.2.,.=.DXDXDXDXDXDXDXDXDXDXDXDXDX",
"DXDXDXDXDXDXDXDXDXDXDXDXDXDXDXDXDXDXDXDXDXDXDXDXDXDXDXDXDXDXDXDXDXDXJ.5X4XW.g 9.W.6.!.fXgXCXs.,.DXDXDXDXDXDXDXDXDXDXDXDXDXDXDXDX",
"DXDXDXDXDXDXDXDXDXDXDXDXDXDXDXDXDXDXDXDXDXDXDXDXDXDXDXDXDXDXDXDXDXDXDXF.<XW.f %.$.<.gXgXoX#XO.DXDXDXDXDXDXDXDXDXDXDXDXDXDXDXDXDX",
"DXDXDXDXDXDXDXDXDXDXDXDXDXDXDXDXDXDXDXDXDXDXDXDXDXDXDXDXDXDXDXDXDXDXDXDXF./.*.<.t.i.+XoXi.DXDXDXDXDXDXDXDXDXDXDXDXDXDXDXDXDXDXDX",
"DXDXDXDXDXDXDXDXDXDXDXDXDXDXDXDXDXDXDXDXDXDXDXDXDXDXDXDXDXDXDXDXDXDXDXDXDXm.&.<.u.oX+Xa.DXDXDXDXDXDXDXDXDXDXDXDXDXDXDXDXDXDXDXDX",
"DXDXDXDXDXDXDXDXDXDXDXDXDXDXDXDXDXDXDXDXDXDXDXDXDXDXDXDXDXDXDXDXDXDXDXDXDXDX@.*.y.i.p.DXDXDXDXDXDXDXDXDXDXDXDXDXDXDXDXDXDXDXDXDX",
"DXDXDXDXDXDXDXDXDXDXDXDXDXDXDXDXDXDXDXDXDXDXDXDXDXDXDXDXDXDXDXDXDXDXDXDXDXDXDXd $.=.DXDXDXDXDXDXDXDXDXDXDXDXDXDXDXDXDXDXDXDXDXDX",
"DXDXDXDXDXDXDXDXDXDXDXDXDXDXDXDXDXDXDXDXDXDXDXDXDXDXDXDXDXDXDXDXDXDXDXDXDXDXDXDXDXDXDXDXDXDXDXDXDXDXDXDXDXDXDXDXDXDXDXDXDXDXDXDX",
"DXDXDXDXDXDXDXDXDXDXDXDXDXDXDXDXDXDXDXDXDXDXDXDXDXDXDXDXDXDXDXDXDXDXDXDXDXDXDXDXDXDXDXDXDXDXDXDXDXDXDXDXDXDXDXDXDXDXDXDXDXDXDXDX",
"DXDXDXDXDXDXDXDXDXDXDXDXDXDXDXDXDXDXDXDXDXDXDXDXDXDXDXDXDXDXDXDXDXDXDXDXDXDXDXDXDXDXDXDXDXDXDXDXDXDXDXDXDXDXDXDXDXDXDXDXDXDXDXDX",
"DXDXDXDXDXDXDXDXDXDXDXDXDXDXDXDXDXDXDXDXDXDXDXDXDXDXDXDXDXDXDXDXDXDXDXDXDXDXDXDXDXDXDXDXDXDXDXDXDXDXDXDXDXDXDXDXDXDXDXDXDXDXDXDX",
"DXDXDXDXDXDXDXDXDXDXDXDXDXDXDXDXDXDXDXDXDXDXDXDXDXDXDXDXDXDXDXDXDXDXDXDXDXDXDXDXDXDXDXDXDXDXDXDXDXDXDXDXDXDXDXDXDXDXDXDXDXDXDXDX"
};
