/* XPM */
static char *result[] = {
/* columns rows colors chars-per-pixel */
"64 103 223 2 ",
"   c #010101",
".  c #030A0C",
"X  c #050D14",
"o  c #0A0E13",
"O  c #051012",
"+  c #091318",
"@  c #1B1B1C",
"#  c #0C1010",
"$  c #03241E",
"%  c #33271B",
"&  c #1E1E20",
"*  c #022325",
"=  c #032829",
"-  c #252A2D",
";  c #28292D",
":  c #272626",
">  c #38342B",
",  c #252A30",
"<  c #2A2B30",
"1  c #373A38",
"2  c #2E312F",
"3  c #4E1602",
"4  c #6C1700",
"5  c #661901",
"6  c #6C1B00",
"7  c #671700",
"8  c #721600",
"9  c #731C00",
"0  c #7B1F03",
"q  c #5A2D11",
"w  c #672504",
"e  c #6D2401",
"r  c #6C2802",
"t  c #67270A",
"y  c #742301",
"u  c #792301",
"i  c #752A01",
"p  c #7A2A02",
"a  c #783C1B",
"s  c #713C22",
"d  c #36423D",
"f  c #394039",
"g  c #474438",
"h  c #534A35",
"j  c #6B4A35",
"k  c #6A4D3B",
"l  c #76522F",
"z  c #373F41",
"x  c #364243",
"c  c #3A4243",
"v  c #244C54",
"b  c #186468",
"n  c #276A69",
"m  c #376C66",
"M  c #32675F",
"N  c #424242",
"B  c #4B5151",
"V  c #5E7170",
"C  c #797F7F",
"Z  c #536B5D",
"A  c #881F01",
"S  c #832101",
"D  c #852904",
"F  c #863307",
"G  c #993305",
"H  c #983713",
"J  c #91340B",
"K  c #A64A17",
"L  c #9B4C22",
"P  c #9B532F",
"I  c #A5552D",
"U  c #A7582C",
"Y  c #B35B2C",
"T  c #BE5923",
"R  c #AB5C34",
"E  c #A95A35",
"W  c #B55F33",
"Q  c #B85F34",
"!  c #A14D26",
"~  c #AF6038",
"^  c #B4643C",
"/  c #BB653B",
"(  c #B56A3B",
")  c #BB6B3B",
"_  c #B86334",
"`  c #97491B",
"'  c #C36936",
"]  c #C26A3D",
"[  c #CB6B3B",
"{  c #C96939",
"}  c #D3663A",
"|  c #D56D3D",
" . c #D96C3D",
".. c #D66934",
"X. c #CD753D",
"o. c #C4733E",
"O. c #D87438",
"+. c #C6612B",
"@. c #E3753D",
"#. c #E1793D",
"$. c #8D5B48",
"%. c #96644B",
"&. c #B56642",
"*. c #BC6643",
"=. c #B66A43",
"-. c #BB6944",
";. c #BC674A",
":. c #B46A4C",
">. c #BB694A",
",. c #B76648",
"<. c #B87249",
"1. c #AC6C52",
"2. c #AF6E54",
"3. c #B07763",
"4. c #C26642",
"5. c #C26944",
"6. c #CD6D43",
"7. c #C56B49",
"8. c #D56D43",
"9. c #D96E44",
"0. c #D36E48",
"q. c #D86B44",
"w. c #CE7343",
"e. c #CB7549",
"r. c #D37144",
"t. c #DC7242",
"y. c #D37249",
"u. c #D67645",
"i. c #C87153",
"p. c #E47442",
"a. c #E87544",
"s. c #E97E45",
"d. c #F27E41",
"f. c #78847E",
"g. c #FD843E",
"h. c #B98C75",
"j. c #ED8947",
"k. c #F58545",
"l. c #FE8544",
"z. c #F48947",
"x. c #FC8844",
"c. c #F28649",
"v. c #FE8549",
"b. c #F4894B",
"n. c #FC8A4A",
"m. c #EC8954",
"M. c #F98851",
"N. c #F89557",
"B. c #EDAE6A",
"V. c #CE9A6C",
"C. c #FECC75",
"Z. c #FBC779",
"A. c #FECC7B",
"S. c #FDC274",
"D. c #FFD07C",
"F. c #5F7E81",
"G. c #617F84",
"H. c #787D80",
"J. c #31A495",
"K. c #5D8183",
"L. c #5A989B",
"P. c #538A91",
"I. c #628285",
"U. c #638489",
"Y. c #678987",
"T. c #66949C",
"R. c #6D969D",
"E. c #6E989E",
"W. c #699797",
"Q. c #71959D",
"!. c #70999F",
"~. c #729593",
"^. c #6D868B",
"/. c #559DA3",
"(. c #5A9BA7",
"). c #6596A3",
"_. c #6D96A1",
"`. c #6B99A1",
"'. c #639DA5",
"]. c #7195A1",
"[. c #7299A1",
"{. c #7A9AA2",
"}. c #57A4AA",
"|. c #5DABB1",
" X c #4BB2B2",
".X c #56B3B3",
"XX c #61A9A9",
"oX c #66B0B7",
"OX c #59C5CB",
"+X c #5DCAD4",
"@X c #59D6D6",
"#X c #52CACB",
"$X c #66D5D3",
"%X c #55DEE3",
"&X c #63DDE1",
"*X c #55E6E7",
"=X c #5BF2EF",
"-X c #4BFCF5",
";X c #46FEFC",
":X c #4CFEFD",
">X c #48FAF4",
",X c #55F5FA",
"<X c #52FCFD",
"1X c #58F8F6",
"2X c #68E4EA",
"3X c #63EFF2",
"4X c #67F4F6",
"5X c #72F5F5",
"6X c #8C8C8C",
"7X c #81959C",
"8X c #BA9688",
"9X c #B59B94",
"0X c #AEA499",
"qX c #809BAE",
"wX c #A5A8AA",
"eX c #A7A6A6",
"rX c #AAA2B1",
"tX c #CC998B",
"yX c #C69988",
"uX c #FFC585",
"iX c #FEC983",
"pX c #FFD18D",
"aX c None",
/* pixels */
"aXaXaXaXaXaXaXaXaXaXaXaXaXaXaXaXaXaXaXaXaXaXaXaXaXaXaXaXaXaX6X6X6X6X6X6XyXtXtXtXtXtXtXtXyXaXaXaXaXaXaXaXaXaXaXaXaXaXaXaXaXaXaXaX",
"aXaXaXaXaXaXaXaXaXaXaXaXaXaXaXaXaXaXaXaXaXaXaXaXaXaX                    i y r y u r y t i aXaXaXaXaXaXaXaXaXaXaXaXaXaXaXaXaXaXaX",
"aXaXaXaXaXaXaXaXaXaXaXaXaXaXaXaXaXaXaXaXaXaX        >X:X:X-X:X:X:X<X<Xy l.l.v.Z.B.y l...-.u aXaXaXaXaXaXaXaXaXaXaXaXaXaXaXaXaXaX",
"aXaXaXaXaXaXaXaXaXaXaXaXaXaXaXaXaXaXaX@ & & *X%X%X%X<X4XXX|.|.|.|.h l z.l.x.Z.e.( y x.{ -.u a a aXaXaXaXaXaXaXaXaXaXaXaXaXaXaXaX",
"aXaXaXaXaXaXaXaXaXaXaXaXaXaXaXaXaXaXaX      >X;X:X;X:X3X_.R.R.R._.q u l.x.g.C.,.~ y x.O.&.y y 9 aXaXaXaXaXaXaXaXaXaXaXaXaXaXaXaX",
"aXaXaXaXaXaXaXaXaXaXaXaXaXaXaXaX      :X:X>XR.E.R.R._.}.:X_.R.).y c.l.l.A.A.g.;.R y k.a.r.e c.k.r aXaXaXaXaXaXaXaXaXaXaXaXaXaXaX",
"aXaXaXaXaXaXaXaXaXaXaXaXaX      aX:X<X:X X`._.!.E.E.E./.;XW.k e x.l.l.v.D.A.l.;.W y x.a.9.y c.n.>.6 3 aXaXaXaXaXaXaXaXaXaXaXaXaX",
"aXaXaXaXaXaXaXaXaXaXaXaXaX      :X:X:X:X}.T.`.E.R.E.Q.|.:XT.j u l.l.x.x.D.pXg.-.~ 9 x.p.9.e c.n.>.u 3 aXaXaXaXaXaXaXaXaXaXaXaXaX",
"aXaXaXaXaXaXaXaXaXaXaXaX  aX:X:XR._.Q.E.2X<XR.E.].W.        3 i d.l.b.A.e 6 l.;.R y k.p.9.y c.n.>.u r   aXaXaXaXaXaXaXaXaXaXaXaX",
"aXaXaXaXaXaXaXaXaXaX    aX:X4XR._.R.E.E.'.R.:X      - - : - q i l.v.j.Z.e 8 l.-.~ u x.p.8.u z.x.>.i 3 :X  B aXaXaXaXaXaXaXaXaXaX",
"aXaXaXaXaXaXaXaXaXaX    4X,X2XXX_.].Q._.W.qX=X      2 - - % t i x.l.j.A.r 8 l.-.^ y x.O.8.e c.n.>.u q 4X  B aXaXaXaXaXaXaXaXaXaX",
"aXaXaXaXaXaXaXaXaX  aX1X).].'.:X_.R.R.R..     : - ; - - : t ' g.l.l.j.A.r 8 l.8.' y x.p.q.y c.n.:.u e y :X X  aXaXaXaXaXaXaXaXaX",
"aXaXaXaXaXaXaX#   ;XL.`._.R.`.T.<XM     1 - - ; - : - - % t | l.l.l.j.C.r 9 v.9.' y x.O.9.y c.v.>.i u y Q.OX>X  aXaXaXaXaXaXaXaX",
"aXaXaXaXaXaXaXm b &X).`.].[.`.R.J.v # # - : - - - - - - : w } l.l.B.N.B.e 9 x.q.' y x.t.8.y c.v.7.9 u r Q.oX&Xb ^.aXaXaXaXaXaXaX",
"aXaXaXaXaXaX  @X;X].`.!.E.E.!.~.  + - - : - - - - - - - ; r ..g.l.A.Z.&.y 9 l.q.' y x.t.0.y z.v.8.w u u W.W.R.:X$   aXaXaXaXaXaX",
"aXaXaXaXaXaX  @X:X:XT.R.R.R.{.  - - - , - - - - - - - % 9 k.l.l.l.A.uX-.y 8 l.q.' y x...*.y c.k.| 6 u m.e Z ;X<X*   aXaXaXaXaXaX",
"aXaXaXaXaX@ $X|.}.}.3X2X[.+ o : - - , - - - - - - - - % r x.l.l.l.A.uX-.y 8 l.8.' y x.| *.y c.v.r.6 y x.9 h |.}.@X$X@ aXaXaXaXaX",
"aXaXaXaX6X  :X|.R.E.1X1XT.    : - - - - - - - - - - - % y n.l.v.v.A.uX=.y 9 l.9./ y x.| -.0 c.d.9.6 9 l.e j `._.3X:X  aXaXaXaXaX",
"aXaXaXaX6X  :X|.R.E.R.{.  : - - - , , - - - - - , - - % 0 c.l.l.l.Z.uX-.9 8 l.9.' y x.q.&.u c.l.8.e 9 n.6 k _.R.3X:X  aXaXaXaXaX",
"aXaXaX  n 4X(.).R.E._.{.  - ; , - - - - - - - - - - - % y k.v.l.v.A.uX) u 8 l.9./ y x. .-.u c.k.r.6 9 v.9 j _.R.L.(.4X.   aXaXaX",
"aXaXaX  n :XW.R.R.R.!.{.  < - - - - - - - - - - - - : % A n.l.l.k.Z.uX/ y 8 l.9.] y x.| / y c.l. .6 y l.9 j ~.R._.W.:X    aXaXaX",
"aXaXaX  n ;XE.R.R.R.    - - - - - - - - - - - - - , r u x.l.x.l.C.( 4.y.i 8 g.8.] y x.O.8.e z.l.r.6 9 l.-.I e R.E.W.:X.   aXaXaX",
"aXaX  ,X@X'.>X>X>XQ.    - - - - - - - - - - - - - - e 0 l.l.l.l.C.( 5.y.i 6 g.4.W y x.p.q.y n.d.r.6 9 l.&.I y >X-X<X`.,X<X  aXaX",
"aXaX  :X@XW.5X4X5X7X    - ; - - - - - - - - - - - , y u l.g.v.l.Z.) -.y.u 4 l.>.~ i x.#.q.y c.k.| e 9 l.4.U y 5X4X5XE.:X<X  aXaX",
"aXaX  <XOX_.`.`.].  - - - - - - - - - - - - - - - - e 0 l.g.l.l.Z.( 4.r.i 4 l.-.~ y n.t.8.e c.k.r.6 8 v.[ Y y T.R.R.].<X<X  aXaX",
"aXaX  :XOXE.`.R.Q.  - - - - - - - - - - - - - - - - r 0 l.g.l.l.Z.( 5.y.y 9 g.-.~ y x.p.q.e c.v.8.6 0 l.8.Y u   V R.R.>X<X  aXaX",
"aXaX  :X#X[.T.R.R.  : - - - - - - - - - - - - - - - e 0 l.l.l.l.C.) 5.i.y 8 l.-.R i v.t.0.y c.v.| 6 9 v.8.Y y   U.R.E.,X<X  aXaX",
"aXaX  :X$X!.'.Q.Q.  : - - - - - - - - - - - - - - , t 0 l.l.l.l.A.( -.-.y 9 l.-.^ y x.8.*.y c.b.r.6 y l.8.Y u   K.`.Q.1X:X  aXaX",
"    ;XW.W._.).O   - - - - - - - - - - - - - - - - - e u l.l.K e y u y i 9 9 l.-.R i n.q.,.i c.v.-.6 9 l./ U u   F._.R.W.).:X    ",
"    :X,X=X=X=X$   - - - - - - - - - - - - - - - - - t 9 l.D / j.j.s.s.j.e 9 S y i y x.q.-.y c.v.-.e 9 l.*.I u   $X3X3X3X4X:X    ",
"    :X:X:X:X:X*   ; - - - - - - - - - - - - - - - - e 0 v.0 ..x.v.n.l.v.0 p e e y y l.6.&.u b.l.;.e 0 g.;.I y   @X;X:X:X:X<X  . ",
"    :XR.W.].R.O   ; - - - - - - - - - - - - - - - , e 0 n.0 } x.*.;.*.-.g.@.l.v.@.u e r y i c.v.,.y u l.,.I u   G._.Q.R.T.<X    ",
"    :XR.[.E.E.o   - - - - - - - - - - - - - - - - - t 9 n.0 } l.*.-.=.eX~ *./ / ) n.M.M.M.p 6 e e y u l.-.I u   K.R.!.E.T.:X    ",
"    ;X`.[.E.!.X   - - - - - - - - - - - - - - - - , y u l.A | n.-.*.=.wX&.-.&.1.) x.x.l.l.y y S S y y m.&.I u   I._.E.!.T.<X    ",
"    :XE.R.E.[.X   - - - - - - - - - - - - - - - - - e 0 l.v.K y u y u -.&.-.-.eX9X-.-.&.&.l.l.l.v.9 y y y y y   F.R.!.`.W.<X  . ",
"    :XE.R.E.E.X   - - - - - - - - - - - - - - - - - e 0 l.l.l.l.u y y y u y 8 / &.-.-.h.eX5.*.4.4.c.n.k.k...e e ^.E.Q.E.T.<X    ",
"    :XL.L././.+   - - - - - - - - - - - - - - - - , e u l.l.l.l.w F F y u y r ^ ^ W -.yX0X/ 5.;.1.s.k.k.d.+.9 y ^./././.(.:X    ",
"    :X;X:X:X;X=   - - - - - - - - - - - - - - - - , t 9 l.l.l.v.C.=.^ y u y y y i y y ~ -.-.-.=.wX,.5./ -.8.n.y $X<X:X<X<X:X    ",
"    :XR.E.!.Q.O   - - - - - - - - - - - - - - - - - y u l.l.l.l.A.( ] 8.y 5 l.y y y i y u u u e ,.;.-.-.eX8X4.y f.!.[.E.R.<X    ",
"    :XT.E.!.R.X   - - - - - - - - - - - - - - - - , w 0 l.l.v.v.A.) *.0.e 6 l.` ` y T F y r i y L L ! ! h.h.4.y C R.E.E.T.<X  . ",
"    :XR.E.E.R.O   - - - - - - - - - - - - - - - - - e 0 k.l.v.d.A.( ) y.y 4 l.-./ y l.J i e u r e y y y -.&.-.y C !.!.!.T.<X    ",
"    ;X_.`.!.Q.O   - - - - - - - - - - - - - - - - - e 0 l.l.l.l.D.u.w.-.y 4 g.,.^ y x.r.&.u b.x.y i y u y y u   f.R.`.[.T.:X  . ",
"    :X_.!.R.Q.O   - - - - - - - - - - - - - - - - , t y l.l.v.l.D.w.0.*.u 7 g.,.^ u g.8.=.i z.x.<.6 p c.9 y y   K._._.[.R.<X    ",
"    :X_.`.`.'.X   - - - - - - - - - - - - - - - - , e 0 l.l.l.l.D.u.r.*.y 6 g.-.^ u k.q.-.u z.n.;.6 u v.6 6 y   K._.].).).<X  . ",
"    <X:X:X;X:X=   - - - - - - - - - - - - - - - - - e 9 l.l.v.d.C.w.e.( 6 5 x.-.&.u x.| -.y z.n.;.6 i v.-.U u   @X:X:X:X:X:X    ",
"    :X).(.(.(..   ; - - - - - - - - - - - - - - - - e 0 l.v.v.l.D.( ( f y 6 g.-.^ y x.p.w.e z.z.;.4 u v.;.U y   f.R.(.(.T.:X    ",
"    :XR.R.R._.X   ; - - - - - - - - - - - - - - - - r 0 l.l.v.l.A.<.1.f t 5 l.-.^ y x.@.r.e z.n.;.6 u v.&.U y   K.T._._.R.:X  . ",
"    :XR.R.E.E.X   ; - - - - - - - - - - - - - - - - e u l.l.v.d.D.g d wX1 > x.-.&.y x.@.| y z.x.;.4 y v.&.R 9   K.T.]._.R.<X    ",
"    :XE.E.E.'.X   - - - - - - - - - - - - - - - - , e 0 l.l.l.l.C.f d wXc > l.-.^ y x.@.8.y z.l.;.4 u l.6.Y y   I._.R.!.R.:X    ",
"    :XE.E.E.E.o   - - - - - - - - - - - - - - - - - e u l.l.l.v.C.g d eXc > l.-.^ y l.@.| y z.l.,.6 u v.q.W u   I._.E.R.W.:X    ",
"    :XE.R.E._.X   - - - - - - - - - - - - ; - - - , e 0 l.l.l.l.C.h x wXN 1 l.-.^ y l.@.| i n.x.>.6 u l.8._ y   K.E.R.E.Q.,X    ",
"    :X:X<X;X;X=   - - - - - - - - - - - - - - , - , t 9 l.l.v.v.C.( =.x y 6 x.y./ e x.@.r.e c.n.r.6 u l.q.Q y   @X:X:X:X:X<X  . ",
"    ;X#X+X+X+X+   - - - - - - - - - - - - - - - - - t 0 l.l.l.d.C.( 1.z y 4 v.9.] e x.@.| e c.v.t.6 y l.8._ y   '.OXOX#X#X;X    ",
"    ;X_.Q.Q._.X   - - - - - - - - - - - - - - - - - e 0 l.l.v.l.A.( 1.d y 9 v.9.o.e x.@.0.y z.l.8.6 u v.8._ y   I.R.T.R.W.:X    ",
"    :X_.Q.R.R.X   ; - - - - - - - - - - - - - - - ; e y l.l.l.v.A.w.i.d e 8 v.9.] e x.X.-.e z.l.r.6 0 l.0._ u   U.R._.!.W.:X  . ",
"    <XE.Q.Q.R.X   ; - - - - - - - - - - - - - - - , r 0 l.l.l.l.A.X.6.x e 9 v.9.) y k.8.-.y z.n.9.6 y l.4.U 0   I.R.R.R.R.<X    ",
"    :X`.Q.R._.X   ; - - - - - - - - - - - - - - - , e u l.l.v.v.A.w.w.x r 6 l.9.] e x.r.*.y b.n.r.6 u l.4.I y   K.R.[._.T.:X    ",
"    :XR._.Q.R.X   - - - - - - - - - - - - - - - - , r u l.l.v.d.D.w.w.x i 9 v.9.] e x.[ *.y b.n.-.5 u l.;.I u   U.E.[.[.T.:X  . ",
"    <X:X:X-X:X*   - - - - - - - - - - - - - - - - , e 9 l.l.v.v.A.( :.d u 4 l.9.] y x.p.r.i z.z.>.7 u l.0.W y   $X<X1X1X,X<X    ",
"    <X1X,X,X,X*   - - - - - - - - - - - - - - - - - e 0 l.l.l.d.A.( :.d i 9 l.9.) e x.a.8.e b.k.7.6 y l.8.W y   #X,X,X,X1X:X  . ",
"    ;X_.R.E.R.+   - - - - - - - - - - - - - - - - - e 0 g.l.l.v.A.) &.x e 9 v.9.] r l.a.8.r b.n.,.6 u l.8._ y   I.E.E.R.`.:X    ",
"    :XR.`.E.E.X   - - - - - - - - - - - - - - - - , e 0 l.l.v.l.A.h f eX1 > v.9.) y x.p.8.y n.n.;.6 u d.8.Q y   G.R.E.R.T.:X    ",
"    :X`.Q.E.E.X   - - - - - - - - - - - - - - - , , e 9 l.l.l.l.A.g c eXd 1 l.y.-.y x.a. .y b.n.-.8 u l.8.W y   I.R.R.R.W.:X    ",
"    :X[.R.!.R.X   - - - - - - - - - - - - - - - , , e y l.l.v.v.A.g c wX1 > l.-.^ e x.a.r.e b.v.9.6 u d.8._ u   I.E.Q.R._.<X  . ",
"    :X_.R.[.[.+   - - - - - - - - - - - - - - - - - e 0 v.l.l.l.D.g x rXz > l.-.( y x.a.8.y b.l.r.5 u l.q.W 9   Y.R.!.Q.T.:X    ",
"    :X2X2X&X2X+   - - - - - - - - - - - - - - - - - e y k.l.v.v.A.$.%.Z q q l.-.^ i k.t.5.y c.l.t.5 u l.5.W u   .X&X&X&X&X:X  . ",
"    :X:X:X:X;X=   ; - - - - - - - - - - - - - - - , y u l.l.l.l.C.( >.c i 8 l.-.^ y x.6.-.y b.n.y.5 u v.&.U y   @X>X>X>X>X<X    ",
"    :X_._._._.X   - - - - - - - - - - - - - - - - - e 0 l.l.v.v.D.) -.y.e 6 l.-.&.y x.6.-.u c.n.,.6 p l.-.I y   I.R.E.R._.;X    ",
"    :X_.R.R.R.X   - - - - - - - - - - - - - - - , , r 9 l.l.l.l.A.( -.q.e 6 x.0.5.u g.6.-.u M.n.,.6 i l.&.U u   I.R.R.E.R.-X    ",
"    <XR.Q.R.[.X   - - - - - - - - - - - - - - - - , r 0 l.l.v.d.A.( ] q.e 4 l.y.] i k.8.-.y c.l.,.9 p n.&.U u   G.R.!.!.W.1X  . ",
"    :X`.E.E.`.X   - - - - - - - - - - - - - - - - , e 0 l.l.v.l.A.w.8.0.y 9 v.9.] y k.8.-.y b.l.:.6 y l.i r y y f.E.R.R.R.:X    ",
"    :X`.[.E.E.X   - - - - - - - - - - - - - - - - - e 0 l.l.l.l.A.X.8.4.y 4 l.u.] u x.8./ y b.z.y y y i k.g.g.u i y _.R.R.:X  . ",
"    :XL.L.L.L..   - - - - - - - - - - - - - - - - - e u l.l.v.l.A.X.r.4.u 6 l.w.' y l.u.<.y N.n.7 4 7 8 M.M.d.4 9 y (.(.L.;X    ",
"    :X:X:X:X>X=   - - - - - - - - - - - - - - - - , t 9 l.l.l.l.A.X.y.5.y 6 l.<.&.y x.G y y y y v.v.v.d.;.*.7.4.p i ;X,X:X-X    ",
"    :XR.Q.Q.R.X   - - - - - - - - - - - - - - - - , e 0 l.l.v.l.A.X.0.;.u 4 l.p i e u O.n.v.v.v.,.7.7.;.eX8X-./ p y _.].Q.:X    ",
"    :XR.R.!.R.O   - - - - - - - - - - - - - - - - - e 0 l.l.l.v.A.o.5.W u 5 O.H H H H  .m.m.m.m.3.:.-.,.9Xh.^ ^ a s Q.Q.Q.:X  . ",
"    :X`.Q.Q.E.O   ; - - - - - - - - - - - - - - - - t 9 l.l.l.l.C.( &.y y y y n.v.x.l.X.-.&.-.&.eX:.-.&.-.I y y ^.Q.!.!.W.:X  . ",
"    :X`.E.E.E.O   - - - - - - - - - - - - - - - - - e 0 l.l.K e 0 i S x.g.l.g.-.=.-.-.8XrX=.-.-.,.9 e y u u y   U.Q.R.E.R.:X    ",
"    :X`.R.].E.O   ; - - - - - - - - - - - - - - - - e 0 l.G { O.O.#.@...| | O.8Xh.-.-.1.3.p F F J 6 u i y y u   Y.].Q._.T.:X    ",
"    <X_.R.R.R.o   - - - - - - - - - - - - - - - - - e 0 l.u } x.k.l.g.-.-.-.7.eX9X-.-.-.=.y i y e r y u y y u   G._.E.!.Q.,X    ",
"    :X:X:X:X:X$   ; - - - - - - - - - - - - - - - - e 0 k.u } l.-.-.-.eX:.-.-.-._ y y y i e y r u y u l.*.I y   @X<X<X<X<X:X    ",
"    :X}.}./.}..   - - - - - - - - - - - - - - - - - t 0 n.0 } k.5.-.;.2.y 9 9 e u y y y y u m.N.-.y p l.0.W u   P.}./././.<X  . ",
"    :X`.R._.R.X   - - - - - - - - - - - - - - - - - e u v.S } b.-.-.-.>.6 u y y y y u y u e c.x.&.6 u l.6.Q u   Y.E.E.E.W.:X    ",
"    :X_.!.Q.R.X   - - - - - - - - - - - - - - - - - e 0 l.g.K y i y u y u y y y y y x.@.8.y b.l.r.9 u v.q.Y u   Y.E.!.Q.T.:X  . ",
"    :XE.E.!.E.X   - - - - - - - - - - - - - - - - , r 0 l.l.l.n.u y y u y 8 n.) ^ i l.@.| e b.l.r.6 u l./ U u   Y.E.E.E.T.:X    ",
"    <X`.!.E.R.+   - - - - - - - - - - - - - - - - - e u l.l.l.l.5 u y 9 y 9 n.-.^ y l.@.| y b.l.t.7 i l.&.R u   Y.R.E.E.T.;X    ",
"    aX[._.E.W.O   ; - ; - - , , - - - - - - - - - - e u l.l.l.l.A.X.6.-.y 6 n.0.] y k.@.8.e z.l.t.6 u x.&.E u   Y.E.W.E.R.:X    ",
"aXaX                                                e 0 l.l.l.l.A.X.r.r.y 9 l.8.] u l. ./ u b.n.9.6 u l.^ E y               aXaX",
"aXaXN N N N N N N N N N N N N N N N N N N N N N N N e 0 v.l.l.l.C.] [ 8.e 9 v.u.] y k. .,.u c.n.5.6 u l.I P $.d N N N N N N aXaX",
"aXaXaXaXaXaXaXaXaXaXaXaXaXaXaXaXaXaXaXaXaXaXaXaXaXaXi u l.l.l.l.C.( -.y.e 9 v.9.{ u k.| -.i b.v.-.y u x.6 %.aXaXaXaXaXaXaXaXaXaX",
"aXaXaXaXaXaXaXaXaXaXaXaXaXaXaXaXaXaXaXaXaXaXaXaXaXaXp u l.v.v.l.C./ 4.r.e 6 l.r.{ u l.| -.y b.v.>.u e e aXaXaXaXaXaXaXaXaXaXaXaX",
"aXaXaXaXaXaXaXaXaXaXaXaXaXaXaXaXaXaXaXaXaXaXaXaXaXaXp 0 l.l.l.l.A.( 4.y.e 9 l.r.' y x.| -.u z.v.H aXaXaXaXaXaXaXaXaXaXaXaXaXaXaX",
"aXaXaXaXaXaXaXaXaXaXaXaXaXaXaXaXaXaXaXaXaXaXaXaXaXaXp u l.g.l.l.C.^ 4.q.y 6 l.r.6.y x.8.-.y z.l.e aXaXaXaXaXaXaXaXaXaXaXaXaXaXaX",
"aXaXaXaXaXaXaXaXaXaXaXaXaXaXaXaXaXaXaXaXaXaXaXaXaXaXp 0 l.l.l.l.C.( 4.e.y 9 l.-.~ i x.| *.y y r aXaXaXaXaXaXaXaXaXaXaXaXaXaXaXaX",
"aXaXaXaXaXaXaXaXaXaXaXaXaXaXaXaXaXaXaXaXaXaXaXaXaXaXp S l.l.l.l.C.( 4.5.y 6 x.;.^ y k.G u aXaXaXaXaXaXaXaXaXaXaXaXaXaXaXaXaXaXaX",
"aXaXaXaXaXaXaXaXaXaXaXaXaXaXaXaXaXaXaXaXaXaXaXaXaXaXi u l.l.l.l.A.( -.-.y 8 x.>.^ y l.G e aXaXaXaXaXaXaXaXaXaXaXaXaXaXaXaXaXaXaX",
"aXaXaXaXaXaXaXaXaXaXaXaXaXaXaXaXaXaXaXaXaXaXaXaXaXaXp u l.l.l.l.A.^ -.-.9 9 l.-./ y i aXaXaXaXaXaXaXaXaXaXaXaXaXaXaXaXaXaXaXaXaX",
"aXaXaXaXaXaXaXaXaXaXaXaXaXaXaXaXaXaXaXaXaXaXaXaXaXaXp u l.g.l.l.C.( 5.5.y 6 l.u s aXaXaXaXaXaXaXaXaXaXaXaXaXaXaXaXaXaXaXaXaXaXaX",
"aXaXaXaXaXaXaXaXaXaXaXaXaXaXaXaXaXaXaXaXaXaXaXaXaXaXp u l.l.l.l.C.( -.-.y 8 v.w ` aXaXaXaXaXaXaXaXaXaXaXaXaXaXaXaXaXaXaXaXaXaXaX",
"aXaXaXaXaXaXaXaXaXaXaXaXaXaXaXaXaXaXaXaXaXaXaXaXaXaXp 0 l.l.l.l.C.( -.&.9 y y aXaXaXaXaXaXaXaXaXaXaXaXaXaXaXaXaXaXaXaXaXaXaXaXaX",
"aXaXaXaXaXaXaXaXaXaXaXaXaXaXaXaXaXaXaXaXaXaXaXaXaXaXt u v.l.x.l.A.( -.y aXaXaXaXaXaXaXaXaXaXaXaXaXaXaXaXaXaXaXaXaXaXaXaXaXaXaXaX",
"aXaXaXaXaXaXaXaXaXaXaXaXaXaXaXaXaXaXaXaXaXaXaXaXaXaX%.E ........V.U I %.aXaXaXaXaXaXaXaXaXaXaXaXaXaXaXaXaXaXaXaXaXaXaXaXaXaXaXaX",
"aXaXaXaXaXaXaXaXaXaXaXaXaXaXaXaXaXaXaXaXaXaXaXaXaXaXaXaXe i r r r r 6 aXaXaXaXaXaXaXaXaXaXaXaXaXaXaXaXaXaXaXaXaXaXaXaXaXaXaXaXaX"
};
