/* XPM */
static char *result[] = {
/* columns rows colors chars-per-pixel */
"64 59 139 2 ",
"   c #0B0903",
".  c #161306",
"X  c #1D1804",
"o  c #1E1A08",
"O  c #221C00",
"+  c #272000",
"@  c #2C2401",
"#  c #2C250C",
"$  c #2F280C",
"%  c #312700",
"&  c #352B01",
"*  c #392E02",
"=  c #332B0C",
"-  c #3E3201",
";  c #3E330B",
":  c #352E11",
">  c #3C3312",
",  c #443602",
"<  c #443802",
"1  c #493B01",
"2  c #453909",
"3  c #493D0D",
"4  c #433A13",
"5  c #483E19",
"6  c #4F430F",
"7  c #534300",
"8  c #5E4C01",
"9  c #4D4317",
"0  c #514515",
"q  c #574912",
"w  c #564B1E",
"e  c #5B4E1D",
"r  c #665100",
"t  c #6B5600",
"y  c #6E5800",
"u  c #66540A",
"i  c #68560C",
"p  c #725B00",
"a  c #725E0E",
"s  c #645517",
"d  c #6F5E1D",
"f  c #7A6100",
"g  c #75600D",
"h  c #78630F",
"j  c #73621C",
"k  c #78661E",
"l  c #5E5224",
"z  c #6B5E2C",
"x  c #756424",
"c  c #7E6D25",
"v  c #7F6F2B",
"b  c #746835",
"n  c #806600",
"m  c #8B6F00",
"M  c #8D7100",
"N  c #8E740B",
"B  c #937500",
"V  c #9C7D00",
"C  c #9C7E0A",
"Z  c #937A13",
"A  c #877427",
"S  c #9C800F",
"D  c #A38300",
"F  c #AD8B00",
"G  c #A3850B",
"H  c #B18D00",
"J  c #B69201",
"K  c #BB9500",
"L  c #BF9800",
"P  c #B69308",
"I  c #A78A15",
"U  c #BD9C1A",
"Y  c #9D862B",
"T  c #9E8A38",
"R  c #A48A22",
"E  c #AA9026",
"W  c #B79A28",
"Q  c #AA9233",
"!  c #B89E37",
"~  c #B9A038",
"^  c #C49C00",
"/  c #CCA300",
"(  c #CAA309",
")  c #D1A700",
"_  c #D5AA00",
"`  c #D9AE00",
"'  c #DEB100",
"]  c #DBB30F",
"[  c #C6A215",
"{  c #CCA819",
"}  c #DDB618",
"|  c #E3B500",
" . c #E7B800",
".. c #EBBC00",
"X. c #E5B90D",
"o. c #E3BB1C",
"O. c #E8BF1B",
"+. c #C1A225",
"@. c #CEAB20",
"#. c #C2A42A",
"$. c #D3AF22",
"%. c #CDAE30",
"&. c #D3B43A",
"*. c #EFC000",
"=. c #F4C300",
"-. c #F8C700",
";. c #FECB02",
":. c #FFCE0C",
">. c #EDC215",
",. c #EEC41A",
"<. c #F6C914",
"1. c #FFCF10",
"2. c #FFD014",
"3. c #FFD21B",
"4. c #E9C120",
"5. c #FFD324",
"6. c #FFD52B",
"7. c #EFC932",
"8. c #EFCB39",
"9. c #F2CE3E",
"0. c #FFD633",
"q. c #FFD739",
"w. c #FFD83C",
"e. c #93875A",
"r. c #BAA243",
"t. c #CFB342",
"y. c #F0CE44",
"u. c #FFDA44",
"i. c #F2D14A",
"p. c #FFDB4B",
"a. c #FFDD53",
"s. c #FFDF5C",
"d. c #FFDF60",
"f. c #FFE063",
"g. c #FFE26B",
"h. c #FFE373",
"j. c #FFE57B",
"k. c #C8C3B0",
"l. c None",
/* pixels */
"l.l.l.l.l.l.l.l.l.l.l.l.l.l.- l.l.l.l.l.l.l.l.l.l.l.l.l.l.l.l.l.l.l.l.l.l.l.l.l.l.l.l.l.l.l.l.l.l.% l.l.l.l.l.l.l.l.l.l.l.l.l.l.",
"l.l.l.l.l.l.l.l.l.l.l.l.l.D *.` l.l.l.l.l.l.l.l.l.l.l.l.l.l.l.l.l.l.l.l.l.l.l.l.l.l.l.l.l.l.l.l.H K f l.l.l.l.l.l.l.l.l.l.l.l.l.",
"l.l.l.l.l.l.l.l.l.l.l.l.| =.=.-.t l.l.l.l.l.l.l.l.l.l.l.l.l.l.l.l.l.l.l.l.l.l.l.l.l.l.l.l.l.l.7 ^ L K H l.l.l.l.l.l.l.l.l.l.l.l.",
"l.l.l.l.l.l.l.l.l.l.+ =.-.-.-.-.-.l.l.l.l.l.l.l.l.l.l.l.l.l.l.l.l.l.l.l.l.l.l.l.l.l.l.l.l.l.l./ ^ ^ ^ K J O l.l.l.l.l.l.l.l.l.l.",
"l.l.l.l.l.l.l.l.l.& -.-.-.;.;.;.;./ l.l.l.l.l.l.l.l.l.l.l.l.l.l.l.l.l.l.l.l.l.l.l.l.l.l.l.l.D ) / ^ ^ L K J O l.l.l.l.l.l.l.l.l.",
"l.l.l.l.l.l.l.l.% -.;.;.;.;.;.;.;.:.< l.l.l.l.l.l.l.l.l.l.l.l.l.l.l.l.l.l.l.l.l.l.l.l.l.l.* _ ) ) / / ^ L K J X l.l.l.l.l.l.l.l.",
"l.l.l.l.l.l.l.l.;.;.;.;.;.;.:.:.:.:.:.l.l.l.l.l.l.l.l.l.l.l.l.l.l.l.l.l.l.l.l.l.l.l.l.l.l.` ` _ ) / / ^ ^ L K J l.l.l.l.l.l.l.l.",
"l.l.l.l.l.l.l.-.;.;.;.:.:.:.:.:.:.1.:.S l.l.l.l.l.l.l.l.l.l.l.l.l.l.l.l.l.l.l.l.l.l.l.l.m | ` ` _ ) / / ^ ^ K K H l.l.l.l.l.l.l.",
"l.l.l.l.l.l./ ;.:.:.:.:.:.:.2.:.2.2.2.2.l.l.l.l.l.l.l.l.l.l.l.l.l.l.l.l.l.l.l.l.l.l.l.l. . .' ` _ _ ) / / ^ ^ K J M l.l.l.l.l.l.",
"l.l.l.l.l.8 :.:.:.:.2.:.2.2.2.3.2.3.3.3.,.l.l.l.l.l.l.l.l.l.l.l.l.l.l.l.l.l.l.l.l.l.l.' .. .| ' ' ` ) ) / ^ ^ L K J , l.l.l.l.l.",
"l.l.l.l.l.:.:.:.:.:.2.2.2.3.3.3.3.3.3.3.3.g l.l.l.l.l.l.l.l.l.l.l.l.l.l.l.l.l.l.l.l.y =... . .| ' ` _ ) / / ^ ^ K K H l.l.l.l.l.",
"l.l.l.l.J :.:.:.:.2.2.3.3.3.3.3.5.5.5.5.5.5.l.l.l.l.l.l.l.l.l.l.l.l.l.l.l.l.l.l.l.l.-.=.=... . .| ' ` _ ) / / ^ ^ K J n l.l.l.l.",
"l.l.l.l.:.:.2.2.2.2.3.3.5.5.3.5.5.6.5.6.5.6.{ l.l.l.l.l.l.l.l.l.l.l.l.l.l.l.l.l.l./ -.-.=.=... .| | ` ` ) ) / ^ ^ K J J l.l.l.l.",
"l.l.l.( :.2.2.2.3.3.5.5.5.5.5.6.6.6.6.6.6.0.6.6 l.l.l.l.l.l.l.l.l.l.l.l.l.l.l.l.1 ;.;.;.=.=.=... .| ' ` ` ) / / ^ ^ K J M l.l.l.",
"l.l.l.:.:.2.2.3.3.5.5.5.5.6.6.6.0.6.6.0.0.0.0.0.l.l.l.l.l.l.l.l.l.l.l.l.l.l.l.l.:.:.;.;.-.-..... . .| ` ` ) ) / ^ ^ K K J l.l.l.",
"l.l.C 2.2.3.3.3.5.5.5.6.6.6.0.0.0.0.0.q.0.0.0.0.E l.l.l.l.l.l.l.l.l.l.l.l.l.l.G :.:.;.;.;.-.-..... .| | ' _ ) / / ^ ^ K J y l.l.",
"l.l.:.2.3.3.3.5.5.6.6.6.0.W q q #.0.w.q.w.w.w.w.w.l.l.l.l.l.l.l.l.l.l.l.l.l.l.2.:.:.:.;.;.-.-.=..... .| ' _ _ ) / ^ ^ K J H l.l.",
"l.@ 2.2.3.3.5.5.6.6.6.6.$ = # # = # w.w.u.w.w.w.w.8.l.l.l.l.l.l.l.l.l.l.l.l.,.2.2.:.:.:.;.-.-.-.=... .| | ` _ ) / / ^ L K J O l.",
"l.G 3.3.3.5.5.6.6.6.0.= 2 # X . o # # u.u.u.u.u.u.u.c l.l.l.l.l.l.l.l.l.l.h 3.3.2.:.:.:.:.;.;.-.=... . .| ` ` _ / / ^ L K J p l.",
"l.<.3.3.5.5.5.6.6.0.7.q 4 = X     o $ y.p.u.p.p.u.u.u.l.l.l.l.l.l.l.l.l.l.5.5.3.3.2.:.:.:.;.;.-.-.=... .| ' ` _ ) / / ^ L J F l.",
"l.2.3.3.5.5.6.6.0.0.W s 0 > # o . o $ ~ p.p.p.p.p.p.u.&.l.l.l.l.l.l.l.l.$.5.5.3.3.2.2.:.:.;.;.;.-.=... . .| ` _ _ / / ^ ^ K J l.",
"+ 3.3.5.5.6.6.0.q.q.%.j b 0 > : $ $ : t.a.a.a.a.a.p.p.p.w l.l.l.l.l.l.6 6.5.5.5.3.2.2.2.:.;.;.;.-.=.*... .| ' ` _ / / ^ L K J X ",
"u 3.3.5.6.6.0.0.q.q.u.d x k.l 9 5 > : a.a.s.a.a.a.a.a.p.p.l.l.l.l.l.l.0.0.6.5.5.3.3.2.2.:.:.;.;.-.-.=... .| ' ` _ ) / ^ ^ K J < ",
"S 3.5.5.6.6.0.0.q.w.u.Y A A e.z l l T s.s.s.s.s.s.a.a.a.a.Q l.l.l.l.E 0.0.6.6.5.3.3.2.2.:.:.:.;.-.-.*... . .' ` _ ) / ^ ^ L J y ",
"[ 5.5.5.6.6.0.0.w.u.u.u.! e c x > r.d.d.f.f.f.s.s.s.a.a.a.p.= l.l.$ w.q.0.6.6.5.5.3.3.2.1.:.:.;.;.-.-... . .| ` ` ) / / ^ ^ J m ",
"} 5.5.6.6.0.w.w.w.u.p.p.a.a.a.s.f.d.d.f.f.f.f.f.f.s.f.s.a.a.i.l.l.9.w.q.0.0.6.6.5.3.3.1.2.1.:.;.;.-.=.=... .| ` _ _ ) ^ ^ K K V ",
"O.5.5.6.0.0.w.w.u.u.p.p.a.a.s.s.d.f.f.f.f.g.g.f.f.f.s.s.s.a.p.A c u.w.w.0.0.6.6.5.5.3.3.1.:.:.;.;.-.=..... .| ` ` ) / / ^ ^ K D ",
"O.5.5.6.6.0.w.w.u.u.p.p.a.a.s.d.f.g.g.g.g.h.g.g.f.f.f.f.s.a.p.a.p.u.u.q.q.0.6.6.5.5.3.1.2.:.:.:.;.;.-.=... . .` ` _ ) / ^ L K F ",
"o.5.6.6.0.0.w.w.u.u.p.p.a.s.s.f.f.g.g.h.h.h.h.h.g.g.f.f.f.a.a.p.p.u.u.w.q.0.0.6.5.5.3.3.1.:.:.;.;.;.=.=..... .| ` _ / / ^ ^ K D ",
"{ 5.6.6.0.0.w.w.u.p.p.a.a.s.d.f.g.g.h.h.h.h.h.h.h.g.f.f.s.s.a.a.p.p.u.w.q.0.0.6.5.5.3.3.2.:.:.:.;.;.-.=..... .` ` _ ) / ^ ^ K B ",
"I 5.5.6.0.0.w.w.u.p.p.a.s.s.d.d.g.h.h.h.j.g.h.h.h.g.f.f.f.a.a.a.p.p.u.w.w.0.0.6.6.5.3.3.2.1.:.;.;.;.-.=... . .' ` _ ) / ^ ^ K p ",
"a 5.6.6.0.0.w.u.u.p.p.a.a.s.f.f.f.g.h.h.j.k.h.h.g.g.g.f.s.s.s.a.p.u.u.w.w.0.0.6.5.5.5.3.2.1.:.:.;.;.-..... . .| ` _ ) / ^ ^ L 7 ",
"; 5.5.6.0.0.w.u.u.p.p.a.a.s.d.f.g.g.h.h.j.j.j.j.g.g.f.f.d.s.a.a.p.p.u.w.w.0.6.6.6.5.3.3.2.:.:.;.;.;.-.=.*. .| ' ' _ ) / / L K + ",
"l.5.5.0.0.0.w.w.u.u.p.p.s.s.d.f.g.g.g.j.j.h.h.h.g.g.g.f.d.s.a.p.p.u.u.w.w.0.0.6.5.5.3.3.2.2.:.:.;.;.-.=.....| ' ' _ / / ^ L L l.",
"l.5.6.6.0.0.w.w.u.p.p.a.a.s.s.d.f.g.g.g.g.h.g.g.g.g.f.d.s.s.a.p.p.u.u.w.w.0.6.6.5.5.3.3.2.:.:.;.;.;.=.*... .| ' _ _ ) / ^ ^ K l.",
"l.U 5.5.0.0.w.w.u.u.p.p.a.a.s.s.f.f.g.g.g.g.g.g.g.f.d.s.s.a.a.p.p.u.u.w.w.0.6.6.5.5.3.2.2.:.:.:.;.-.-.=.....| ' _ _ ) / ^ L m l.",
"l.2 5.6.6.0.0.w.w.u.p.p.p.a.s.s.d.f.f.g.g.f.g.f.f.d.d.s.a.a.a.p.u.u.w.w.0.0.6.5.5.3.3.3.2.:.:.;.;.;.=.*... .| ' ' ) / / ^ L % l.",
"l.l.5.6.6.0.0.w.w.u.u.p.a.a.a.s.s.s.d.d.f.d.d.f.f.d.s.s.a.a.p.p.u.u.w.w.0.0.6.6.5.3.3.2.:.:.:.;.;.-.=.*... .' ` _ ) / / ^ ^ l.l.",
"l.l.U 5.6.0.0.w.w.u.u.u.p.a.a.a.a.s.s.s.s.d.s.s.s.s.a.a.a.p.p.u.u.u.w.0.0.6.6.5.5.3.2.2.2.:.;.;.;.-.=.*...| ' ' _ ) / ^ ^ M l.l.",
"l.l.l.5.5.6.0.0.w.w.u.u.u.p.p.a.a.a.s.s.s.s.s.s.a.s.a.p.p.p.p.u.w.w.w.0.6.6.6.5.5.3.2.2.:.:.:.;.;.=.*.*. .| | ' _ ) / / ^ l.l.l.",
"l.l.l.4.5.6.0.0.0.w.w.u.u.p.p.a.a.a.a.a.a.a.a.a.a.a.p.p.p.u.u.w.w.w.0.0.6.6.6.5.3.3.2.2.:.:.;.;.-.=.=... .| ' ` _ ) / ^ F l.l.l.",
"l.l.l.; 5.6.6.6.0.0.w.w.u.u.u.p.p.p.a.a.a.a.p.a.a.p.p.p.u.u.u.w.w.w.0.6.6.5.5.3.3.3.2.:.:.;.;.;.-.-..... .| ' _ _ / / ^ @ l.l.l.",
"l.l.l.l.o.5.6.6.0.0.0.w.w.w.u.u.u.p.p.p.p.p.p.p.p.u.p.u.u.u.w.w.0.0.0.6.6.5.5.3.2.2.:.:.:.;.;.-.-.*.....| ' ' _ ) / / F l.l.l.l.",
"l.l.l.l.l.5.6.6.0.0.0.0.w.w.u.w.u.u.u.u.p.u.u.u.u.u.u.u.w.w.w.0.0.0.6.5.5.5.3.3.3.2.2.:.:.;.;.-.=.*... .| ' ` _ ) / ^ l.l.l.l.l.",
"l.l.l.l.l.Z 5.6.0.6.0.0.0.w.w.w.u.w.u.u.u.u.u.u.u.u.w.w.w.0.0.0.0.6.6.5.5.5.3.3.2.:.:.:.;.;.-.-.=... . .' ' _ _ / / p l.l.l.l.l.",
"l.l.l.l.l.l.,.5.5.6.6.0.0.0.0.0.w.w.w.w.w.w.w.w.w.w.w.0.0.0.0.0.6.6.5.5.3.3.3.2.2.:.:.:.;.;.-.=.*... . .' ` _ ) / K l.l.l.l.l.l.",
"l.l.l.l.l.l.l.5.5.5.5.6.0.0.0.0.0.0.0.w.w.w.w.w.0.0.0.0.0.0.0.5.6.5.5.5.3.3.2.2.:.:.:.;.;.-.-.=... . .| ' ` ) ) / l.l.l.l.l.l.l.",
"l.l.l.l.l.l.l.2 5.5.5.6.5.6.0.0.0.0.0.0.0.0.0.0.0.0.0.6.0.6.6.6.5.5.3.3.3.2.2.:.:.:.;.;.;.-.=.*... .| ' ' _ ) / & l.l.l.l.l.l.l.",
"l.l.l.l.l.l.l.l.i 3.5.5.5.5.6.6.6.0.6.0.6.0.0.0.6.6.6.0.6.5.5.5.3.3.3.3.2.2.:.:.:.;.;.;.-.-.=... . .' ` ` _ / 7 l.l.l.l.l.l.l.l.",
"l.l.l.l.l.l.l.l.l.g 3.5.5.5.6.5.5.6.6.6.6.6.6.6.6.5.6.5.5.5.5.3.3.3.3.2.2.:.:.:.;.;.;.-.-.=..... . .' ` _ ) 8 l.l.l.l.l.l.l.l.l.",
"l.l.l.l.l.l.l.l.l.l.i 3.5.3.5.5.5.5.5.5.5.5.5.5.5.5.5.5.5.3.3.3.3.2.2.:.:.:.:.;.;.;.;.=.=... . .| ' ' _ _ 7 l.l.l.l.l.l.l.l.l.l.",
"l.l.l.l.l.l.l.l.l.l.l.2 3.3.3.3.5.3.5.5.5.5.5.5.5.5.3.3.3.3.3.2.2.2.2.:.:.:.;.;.;.-.-.=..... .| | ' ` _ & l.l.l.l.l.l.l.l.l.l.l.",
"l.l.l.l.l.l.l.l.l.l.l.l.l.>.3.3.3.3.3.3.3.3.3.3.3.3.3.3.3.2.2.2.2.:.:.:.:.;.;.;.;.=.=..... . .| ' _ ^ l.l.l.l.l.l.l.l.l.l.l.l.l.",
"l.l.l.l.l.l.l.l.l.l.l.l.l.l.N 1.2.2.3.3.3.3.3.3.3.2.2.2.2.2.:.:.:.:.:.:.;.;.;.-.-.=.=... .| | ' ` f l.l.l.l.l.l.l.l.l.l.l.l.l.l.",
"l.l.l.l.l.l.l.l.l.l.l.l.l.l.l.l.] 2.2.2.2.2.2.2.2.2.2.:.:.:.:.:.;.:.;.;.;.-.-.=.=.=... . .| ' K l.l.l.l.l.l.l.l.l.l.l.l.l.l.l.l.",
"l.l.l.l.l.l.l.l.l.l.l.l.l.l.l.l.l.& X.2.:.:.:.:.:.:.:.:.:.:.:.:.;.;.;.;.-.-.-.=..... . .| / @ l.l.l.l.l.l.l.l.l.l.l.l.l.l.l.l.l.",
"l.l.l.l.l.l.l.l.l.l.l.l.l.l.l.l.l.l.l.l.P :.:.:.:.:.:.:.:.;.;.;.;.;.-.-.-.=.*..... . .D l.l.l.l.l.l.l.l.l.l.l.l.l.l.l.l.l.l.l.l.",
"l.l.l.l.l.l.l.l.l.l.l.l.l.l.l.l.l.l.l.l.l.l.- P -.;.;.;.;.;.;.-.;.-.-.=.*.*... .D * l.l.l.l.l.l.l.l.l.l.l.l.l.l.l.l.l.l.l.l.l.l.",
"l.l.l.l.l.l.l.l.l.l.l.l.l.l.l.l.l.l.l.l.l.l.l.l.l.l.% t D / ' | ' _ ^ V r @ l.l.l.l.l.l.l.l.l.l.l.l.l.l.l.l.l.l.l.l.l.l.l.l.l.l."
};
