/* XPM */
static char *result[] = {
/* columns rows colors chars-per-pixel */
"64 64 254 2 ",
"   c #3A32B2",
".  c #75139E",
"X  c #7B2C9D",
"o  c #7B369D",
"O  c #7D07A5",
"+  c #7C0AA4",
"@  c #7C0BAC",
"#  c #7607A6",
"$  c #7A0DB4",
"%  c #7511B5",
"&  c #7A11B5",
"*  c #7515AB",
"=  c #762CA5",
"-  c #7C2CA2",
";  c #7B2AAA",
":  c #7B32AD",
">  c #7D3CAE",
",  c #7834A8",
"<  c #7A2AB2",
"1  c #7C34B1",
"2  c #7C3DB4",
"3  c #793CB9",
"4  c #6E3EAA",
"5  c #4927AF",
"6  c #2156AD",
"7  c #147AAD",
"8  c #1779A9",
"9  c #147BB1",
"0  c #1B7AB4",
"q  c #1978B7",
"w  c #0C7EA7",
"e  c #267ABA",
"r  c #266EAB",
"t  c #6F44AC",
"y  c #477BBB",
"u  c #6C7BA8",
"i  c #667CBB",
"p  c #767CB6",
"a  c #6B70B3",
"s  c #7C16CB",
"d  c #7C19CB",
"f  c #7D17C6",
"g  c #7C13CB",
"h  c #4731C2",
"j  c #7A3DC1",
"k  c #7A36C1",
"l  c #7C3CD5",
"z  c #7A2EC7",
"x  c #1F77C8",
"c  c #2679C2",
"v  c #2979C8",
"b  c #2B7AD1",
"n  c #287CD4",
"m  c #327AD5",
"M  c #3278D8",
"N  c #3170C8",
"B  c #3555C0",
"V  c #7B42C4",
"C  c #7E43DE",
"Z  c #7D41D7",
"A  c #6851CA",
"S  c #5471C7",
"D  c #746DDA",
"F  c #766DD8",
"G  c #6D75DB",
"H  c #7571DC",
"J  c #7A73DD",
"K  c #7B76DA",
"L  c #6E75C8",
"P  c #7C48E5",
"I  c #567BE8",
"U  c #4E7AE7",
"Y  c #796CE1",
"T  c #7573E1",
"R  c #7974E3",
"E  c #7D78E6",
"W  c #687AF4",
"Q  c #737BF5",
"!  c #7676FF",
"~  c #7E76FD",
"^  c #757CFD",
"/  c #7E79FD",
"(  c #7B79F6",
")  c #7274F7",
"_  c #8209A5",
"`  c #8F0FAF",
"'  c #833CB5",
"]  c #842CAF",
"[  c #AE2BB8",
"{  c #A516A6",
"}  c #8442B4",
"|  c #B346BC",
" . c #8E7DBB",
".. c #967CBA",
"X. c #9F7FAE",
"o. c #A47EAC",
"O. c #A77DAB",
"+. c #BF7EAD",
"@. c #A57BB7",
"#. c #B46DB9",
"$. c #957E9F",
"%. c #D17AA5",
"&. c #CE7CB1",
"*. c #E57EBF",
"=. c #C14ABE",
"-. c #8314CA",
";. c #8118C7",
":. c #8215D3",
">. c #823BCD",
",. c #8133C2",
"<. c #833CD5",
"1. c #843DDD",
"2. c #8839D7",
"3. c #9526CB",
"4. c #843FE0",
"5. c #8241D3",
"6. c #8243DC",
"7. c #844ADC",
"8. c #9856D3",
"9. c #8E7BD8",
"0. c #956ED2",
"q. c #AA7ADC",
"w. c #BA7DDD",
"e. c #B57EDD",
"r. c #AD70C2",
"t. c #8342E2",
"y. c #844AEB",
"u. c #8546E7",
"i. c #8F5FE3",
"p. c #836FFF",
"a. c #8275FE",
"s. c #8974FE",
"d. c #827AFE",
"f. c #897BFF",
"g. c #8A79F5",
"h. c #836FE6",
"j. c #A97BE3",
"k. c #A57AE6",
"l. c #B57AE4",
"z. c #BA79E2",
"x. c #A97AF5",
"c. c #A443D0",
"v. c #C67EC4",
"b. c #C97CC6",
"n. c #D67EC4",
"m. c #D97DC4",
"M. c #D47CCC",
"N. c #C57BDA",
"B. c #C77BD9",
"V. c #C86AC1",
"C. c #E47DC5",
"Z. c #C764D9",
"A. c #1483AB",
"S. c #24A4AC",
"D. c #219A9D",
"F. c #7D9FB4",
"G. c #7D94BC",
"H. c #7F9DB9",
"J. c #758CA3",
"K. c #7EA6AC",
"L. c #7EAAA9",
"P. c #7DA3B3",
"I. c #7CA7B9",
"U. c #75B5B3",
"Y. c #5BA4AC",
"T. c #50C9BA",
"R. c #7FDDBD",
"E. c #7DE6AC",
"W. c #7DE9AD",
"Q. c #77E2A6",
"!. c #7BE2BD",
"~. c #7EE7B2",
"^. c #6EE0BD",
"/. c #2F86C7",
"(. c #7E91C2",
"). c #6E8ED3",
"_. c #4EB2D2",
"`. c #7BBCC8",
"'. c #7BBED4",
"]. c #79BBDA",
"[. c #6CB2C4",
"{. c #5B84E5",
"}. c #7E89EE",
"|. c #7C86EE",
" X c #7D86F5",
".X c #7C89F4",
"XX c #7E83FC",
"oX c #7787FC",
"OX c #6A83FA",
"+X c #7DB5E5",
"@X c #77B8E5",
"#X c #4C87DF",
"$X c #42C1C2",
"%X c #7CC5CB",
"&X c #7AC9CA",
"*X c #79C4C6",
"=X c #7DDCC3",
"-X c #7CD5CC",
";X c #7CD6CA",
":X c #7CC1D4",
">X c #78C4D6",
",X c #7ED5D1",
"<X c #6AC9CB",
"1X c #7CE1C1",
"2X c #78E9CA",
"3X c #9D81BB",
"4X c #9A83B6",
"5X c #8392BD",
"6X c #839AB8",
"7X c #8394B5",
"8X c #A881AD",
"9X c #A581B5",
"0X c #BE94B0",
"qX c #82ACAB",
"wX c #82A7A8",
"eX c #81A9B2",
"rX c #81A4B9",
"tX c #82B9B3",
"yX c #DB84B9",
"uX c #CC82A9",
"iX c #E281BB",
"pX c #84DEBC",
"aX c #88DEBD",
"sX c #93CBB5",
"dX c #AFC5B8",
"fX c #82E6B6",
"gX c #80E7AE",
"hX c #9883C3",
"jX c #8398C5",
"kX c #9192D8",
"lX c #BA82DB",
"zX c #86B3CD",
"xX c #ADB6D3",
"cX c #8286EF",
"vX c #8788EE",
"bX c #8186F5",
"nX c #8282FE",
"mX c #8389FC",
"MX c #8686F9",
"NX c #969DE0",
"BX c #A989EA",
"VX c #82B6E4",
"CX c #CC84CA",
"ZX c #CB85E4",
"AX c #81CDCE",
"SX c #9ACBC8",
"DX c #81DDC3",
"FX c #83D5CC",
"GX c #80DBCA",
"HX c #84D4D0",
"JX c #80D8D4",
"KX c #94D0CE",
"LX c #83E1C2",
"PX c #B3C1C1",
/* pixels */
"L R R R R R R R Y Y J H T #.$.e T T G T T R T T T R T R T T H T T T T R T R R R T 0.@.r S h.K T E R H H H R R D T R R H R R R J ",
"J f.f.f.d.d.s.d.d.d.d.d./ N.@.v XXd.d.f.d.d.f.d.f.nXd.f.f.f.nXf.f.d.d.d.d.d.d.d.^ k.CX8 OXg./ f.f.nXf.d.d.d.d.d.d.d.d.d.d.d.f.nX",
"F f.a.a.~ / ( / d./ d.a.^ N.r././ / / d.d.d.d.d.d.a.d.a.a.~ d./ / d.d.d.a.d.d.d.! j.v.e W s.d.d.~ d.d./ a./ ( d.a.~ a.( ( d.d.d.",
"F d.a./ / / / / / / ( a.! lXr.x / a.a.a./ d.a.a.~ d.a.a.s.a.~ ~ d.d.a.s.s.s.d.d.! k.b.q W g./ / d.d.~ ~ ~ d.a./ d.~ d.d.a./ a.a.",
"G oXXXnXnXnXnXnXnXnXnXnXnXZXhXn nXnXXXd.XXd.d.f.d.nXf.f.f.f.f.f.f.d.f.f.f.nXnXf.^ BXb.x OXf.XXnXnXnXnXnXf.f.nXf.nXf.nXd.f.nXnXnX",
"3 5.>.<.<.<.<.<.2.2.<.<.l =.r.B t.t.P C 4.6.t.t.1.t.4.t.P C t.6.6.C C P C C C C P c.V.r A 1.C Z <.2.<.l <.<.<.<.<.<.<.<.<.<.2.2.",
"4 > , 3.' t ' ' ' ' > 2 1 ' kXa ' } ' t ' ' 2 2 } 2 ' t 2 2 3 ' ,.t 2 1 3 3 t t ' ' 0.S < ] 1 1 1 : : : 1 1 1 1 1 1 , 1 1 t 1 } ",
"tXLXdX).T.fXQ.E.W.W.W.W.W.Q.Q.Q.E.~.~.~.W.W.~.W.E.E.~.fXE.W.gXkX_.GXAXAXHXHXHXHXHXFX-X;X,X,XHX-X,X,X,X,X,X,XJX,X,X,XKXkX$XfXfX~.",
"9.mXyXu /.nX.X.XbXbX.X.X.XbXbXbXbX.X.X.XoXoX.X.X X XbX.X X|.lXX./.MX( XXd.bXnXnXXXnXXX XoXoXnXbX XXX/ XXXXXXXXXXXXoXBXO.8 bXMXbX",
"D / &.u r / ( / ~ ( ! ~ ~ a.( ~ ! ~ d.s.a./ s.a.d.~ ( a.( ! v.X.M s.~ ~ ( / ~ / / / / a.a.s.d.d.a.d./ d.a.d.a.d.a.! j.@.9 ~ s.a.",
"T ! n.u e / d.d.d.d./ d.d.d.d.d./ / a.d.f.d.d.d.d.d.d.d.d.! CXX.M d.( ! / d.nXd.d.d./ d.d./ d./ / d.d.d./ / / / / ! l.3X7 / ( / ",
"D / n.p e d.d.d.d.d.d.d.d.d.a.a.d.d.d./ / / f.d.d.d.d.d.d./ v.8XM d./ / / / d.d./ / d./ / d./ / d./ / / / / / / d.! l.3X7 / ( / ",
"J / m.p e d.d.d.d.a.d.d.d.d.d.d./ d.d.a.~ d.d.a./ d.d.f.d.! CXo.n d.a.d./ / / / d.d.d./ d.f.d.d.d.d.d.d.d.d.d.d./ ~ l...7 / nXnX",
"J d.n.u e d./ ( d.d.~ d.d.d.d.d./ a.d.d.d.d./ d.~ d.a./ f.! b.o.n d.d.~ d.d.d.d.d.d./ a.d./ / d.d.d.d./ a.d.d.d.d./ l.9X7 / d.nX",
"J / n.u e d.d.d./ a./ d.d.d./ d.d.~ a./ d.d.d.d.d.( d./ d./ v.o.n d.d.d.d.a.d.d.d.a.d.d.a.~ d.f.d.d.d.d.d.~ d.d.d.~ l.3X7 ( d.( ",
"J / n.u e d./ a.d.d.d.~ a./ a.d.d.d.d.a.d.d.d.a.d.d.a.d.d.! v.X.b s./ d.d.d./ d.d.a.( a.d.d.d.d.d.d.a.d.d.a.d./ a.! l.3X9 ( d.d.",
"D / n.p c d.d.d.d.d.d.d.d.d.a.a.d.d.( a.d.d.d.d.d./ ~ d.d.( &.o.m d./ / d.d./ / d.d./ / d./ / / / d.d.d.d.d.d.d.d.! l.X.q XXf./ ",
"D a.m.a v f.s.g.s.s.s.s.s.s.p.! s.s.g.p.s.s.a.s.s.s.s.s.s.~ b.8Xb d.d.f.a.d.a.s.s.s./ / d.s.d.d.d.d.s.d.a.d.d.d.d.d.z...9 ~ ( f.",
"* ` [ D 5 _ + O + @ O # O @ $ # O O O + # O O _ @ + _ _ + # { 8.h s ;.:.-.-.-.-.-.-.f f -.-.f s d f d d s s s s d d 3.i.  + $ $ ",
"J.jXI.].5X7XH.7XG.5XG.G.G.5Xh.G.F.F.K.F.P.F.H.H.F.F.F.F.P.F.P.`.U.I.jXrXI.I.rXrXP.rXhX).U.L.qXwXL.qXqXL.qXqXeXqXqXqXqXSXU.wXqXwX",
"[.VX'.].'.].].].].].].].@XxXhXS.>X].>X'.>X'.'.'.'.'.].'.'.'.'.'.'.'.'.'.'.%X'.].>XsX0XD.<X&X%X%X*X*X*X*XAX`.%X%X*X%X%X`.AX%X%XAX",
"F a.! s.p.p.p.p.p.a.a.a.! z.r.x ! a.a.a.s.p.a.a.a.a.a.p.p.p.p.a.p.a.s.p.a.s.s.p.! k.&.r W ~ ~ a.a.a.~ a.p.p.a.a.a.p.~ a.p.p.~ s.",
"J d.d.d.d.a.d.d.d.d./ / / N.4X0 / d.nXd.d.d.d.d.d.d.d.d.d.d.d.d.d.d.a.f.d.d.d.d.^ k.O.8 Q / / / / / d./ / d./ XX/ / / / / / ( f.",
"D d.d.s.d.d.d.d.d.d./ ~ ! N.3X0 d.d.d.d.d.a.d.d.f.d.d.nXd.d.d.d.d.d.d./ / a./ d.! q.&.8 Q ~ / d.d.d.d./ d.d.d.d.d.d.d./ d./ / d.",
"D d.d.a.d.d./ / d.d./ d.~ N.hX0 d.nXd.d.d.d.d.~ d.d.d.~ d.a./ d.d.d.d.( a.~ d.d.! j.0X8 ) a.~ d.d.d.d./ d.d./ / d.d.d./ d.d.d.d.",
"H d./ d.d.d.d.a.d.d.d.d.~ N.9.0 / d./ d.d.d.d.d.a./ d.d.d.d.d.d.d.( d.d.f./ d.a.! j.+.8 Q a./ ~ a.d.d./ d.d./ a.~ s.d.a.a.d.d.d.",
"H d.~ d.d.a.d.~ d.d.a.d./ B.hXq ! / / d.d.d.d.d.d.d.d.d.d.~ d.d.d.d.d./ / d.d.d.! k.%.w W s.d.d.d.d.d.a.d.d.a./ d.d.d.d.d./ d.g.",
"F d./ d.d.d.~ d.d.d.~ d.! B.hXA./ d.d.d.~ d.d.d.~ d.~ ~ d.d.d.d.d.d.d.d.a.d.d.a.Q k.+.8 W s.a./ / / d.d.d.d.( / / ~ d.d.d.d./ nX",
"F d.d.d.a.d.d.d.a.d.a.d.! w.hX0 / d.d.d.a./ a./ d.a.a.d.d.d.d.d.~ ~ a.d.d.( a.d.! j.0X8 Q s./ / / / d./ d.s./ / ( d.a.a.a.a.a.d.",
"K nXnXnXnXnXnXnXnXXXnXd.oXZXhXA.XXf.d.nXnXnXnXf.nXnXnXnXnXnXXXd.nXnXnXXXnXnXd.nXXXBX&.w OXf.nXnXnXnXnXnXnXf.nXnXnXnXd.d.nXnXnXMX",
"t y.P P u.u.u.u.P u.P t.P =.q.6 <.6.6.t.4.6.t.4.t.1.4.4.4.1.t.t.6.4.4.1.1.1.1.6.Z c.#.6 l <.l >.>.>.<.2.>.<.l l >.>.>.<.<.l j <.",
"> j z z ,.,.3 k k k 3 3 1 ' h.A ] : ] : 1 < : : : 1 ] 1 < 1 : < 1 1 1 1 1 1 1 : , ] 0.A X - X - X X ; ; ; = X , = - = < ; - o ] ",
"Q.~.dX}.[.DXFXFX=X=XFXFX=X=X;XFX,X-X-XFX-X-XFXFX-X-XFXFX-X-XSXkX_.gX!.!.!.!.!.LXDXpX!.!.1X!.!.=X1X=X1X1XR.1X1X1XR.1XKXNXT.~.~.fX",
"L cXCXL /.|.|. X X X XXX XXXbXnX X XbXbX X X X XXX XXX XoXoXlX .A.cX|.|.|.|.|.|.cXbX|.|.|..X|.cXvXvX|.|..X|.|.cXvX XlX+.w |..X.X",
"h.s.C.p n ~ a.a.~ ~ ~ a.~ ~ a.( ~ ~ a.~ ~ a.~ a./ ~ a.~ / ~ z. .v s.a.~ a.a.a.s.s.a.a.a.s.a.a.a.a.a.s.a.a.a.a.a.s.~ z.8X0 d.d./ ",
"F f.CXp M d.( d.a.a./ a.~ a./ d./ a.~ d./ d.a./ / d./ a./ ! w. .v f./ d.a.d.d.~ ( d.d.d.d.d.a.d.a.d.d.a.d.s.d.d.d.! z.9X0 / d.nX",
"F d.m.p M f.d./ ( d.~ d.d.~ d.~ d.a.d./ d.d.d.a.d.d.d.a.d./ w...e d.d.d.d.~ d.d.d.d.~ / ~ ~ d.d.d.d.d.a.~ d.d.d.d./ l.9X0 / d.d.",
"F d.m.p M nX/ d.a.d.d.d.d.~ d.d.d./ d.d.d.~ d.d.d.d.d.d.d./ w...c d.d./ ~ d.~ a.d.f.d.d.d.d./ a.d./ d.d.d.~ ~ d.d./ l.8X0 / g.( ",
"F d.CX .m d.d.d.d.d.d.d.d.d.d.a.a.d.~ a.d.d.a.d.a.d.d.d.d.! e. .c f./ d.d.d.d./ / / ~ d.d.d.d./ / / / d.d.d.d.d.d.~ l.8X8 ( d.nX",
"F s.m.p m d./ ~ d./ a.d.d.d./ / d.d.d./ / a./ / d./ d.d.d.! w. .c d.a.d.d.d.d.d.d.d.d.a.d.d.d./ ~ d./ d.d.d.d.d.f.! lX8X8 Q d.d.",
"K d.n.p M nXd.a.a./ d./ a.d.a.d.d.d.d.d.d.a.d.~ d./ d.a.d./ e. .c d.a.d./ d.a.d.d.d.d.d.d.d.d.d./ / d.~ / a.d.d./ ~ e.o.0 Q s./ ",
"K / n.p /.f./ d.d.~ d.d.d./ d.d.d./ / / d./ d./ d.d.d.d.d.^ e. .c d.d.a.d.a.d.d./ d.d.a.a.a.a./ d.a.d.d.d.d.d.a.d.! e.o.0 |.d.d.",
"9.~ m.p M s.s.d.s.f.f.f.s.s.d.d.s.s.d.s.s.s.s.d.d.s.s.f.d.a.N. .c s.s.s.s.a.a.a.a.s.a.s.s.s.a.s.a.s.s.a.a.s.p.a.s.~ N.8Xq s.g.d.",
". g [ Y h :.;.;.s f f f f s f ;.s s f s s f d f s s f d ;.s [ i.  * % % % % % % % % % & $ & & % & % % & & % % $ % % { 8.h _ * @ ",
"J.wXP.zXrXrXrXP.P.P.6X6XI.rXh.(.P.K.K.P.P.P.qXP.P.wXeXP.eXeXL.zXI.L.K.K.wXK.L.K.K.wX9.J jXjX(.5X5X5X5XG.(.(.(.5X5X7XG.NXjXG.G.(.",
"I.AX%X`.'.:X>X>X%X:X:X:X>XdXhXS.&X*X*X&X&X&X&X&X&X&X&X&X&X&X&X*X*X&X&X*XAX*X&XzX`.SX0X/.@X+X+X+XVXVX+X+X+X+X+XVXVX+X+X+X+XVX+X+X",
"D ~ s.~ ~ ~ s.s.p.a.a.~ ~ Z.@.8 ! ~ ( a.a.s.s.a.~ ~ a.a.d.~ d.~ ~ ~ p.p.p.~ ~ ~ ~ k.%.N ) ~ ~ p.p.~ p.~ a.~ ~ a.p.~ ~ a.~ a.a.a.",
"D a./ a.~ d.d.d.d.d./ XX/ N.@.7 Q / / d.a.d.d.d.d./ s.d./ / / / ( a.a.a.a.( ~ a.~ q.%.b ) ! / d.a.s.a.a.d.a.a./ s.a.a.d.s.a.d.a.",
"J f.a.d.d.d.a.d.d.a./ d./ B.4X7 / d.! d.d.d.d.d.d.d.d.d.d.d.~ / d.s.d.d.d.d.d.d.a.q.uXm ^ d./ / ~ a.d./ d./ / / d.d.d.d.d.d.d.d.",
"D d./ a.d.d.d.d.d.d./ d./ B.8X9 XX/ d.d.d.d.d.d./ d.d./ d.d.d.a.d.d.d.d.d.d.d.a.( q.%.m ^ d./ / d.d.d./ d.d.d./ / d./ d.d.d.~ f.",
"J f.d./ d.a.d./ / / d.g.( N.o.7 / ( ~ ~ d./ d./ d.d.d.d.d.d.~ / a.d.a.d.( a.d.f.~ q.%.m ^ d.d.a.~ d.d.d.d.a.d.d.d.~ d.a.d.d.d.d.",
"D d.~ d.d.d.d.d./ / / d.~ N.o.8 / d.d.d./ / d.d.a.d.d.d.d.d.d./ d.~ / a.d.~ ( d.! q.%.m ^ d.d.d.d.d.d.d.d.a.d.d.d.d.d.d.d.d.d.nX",
"H d.d.d.a.d.d.d./ d./ d.~ N.o.7 oX/ d.d.d.d./ ~ / d.d.d.d.d./ d.a.~ d.d.d.d.d.a.~ q.%.m ^ ! / d.d.s.d.d.d.a./ d.d.d./ d.d.d.d.d.",
"H d.a.d.a.a.d./ a.( d.d.~ N.o.7 / d.d.d.d.~ a.d.d.a.a.( a.a.s.f.d.d.a.~ a.~ ~ d.a.q.%.m oX/ d.a.a.d.d./ / / d./ a./ d.d.a./ d.d.",
"R MXnXnXnXnXd.nXnXd.d.nXd.B.4X9 nXnXd.mXnXnXnXnXnXnXnXnXnXnXnXMXnXnXnXXXnXnXnXnXXXBXuXm oXnXf.f.nXd.nXnXd.nXXXXXXXXXnXnXd.d.XXbX",
"V u.7.7.6.5.6.6.6.C C Z C =...6 <.<.5.5.5.2.<.5.5.<.<.<.<.<.2.5.2.5.5.l Z 5.Z 5.l [ %.N P y.P y.y.y.P P y.y.y.y.y.y.y.y.y.y.y.y.",
"o } * < - , ; : 1 1 1 1 : ' 9.t ] X ] - - - - X X X - - - - ; = ] ] X X = = = = = ] 0.A 3 V t V j V t V V V j j j j V 3.V V V V ",
"U.KXBX_.^.1XR.pXpXpXaXaXpXpXDX1XDX=XfXDXDXDXDXDXpXpXDXDX;X=XxX).^.=XFXAX-XHXFXFXFXFXDXDXFX-XHXHXHXHXHXFXFXHXFXFXFXFXxX{.$XLXfXLX",
").BXv.7 {.MX.XbXvXMX.X.X.X.XbX X X X X X.X|..X.X.X.X XbXg.vXyXy U mXbXXX Xg.|.bXbXbXMXMXmX XnXnXmXmXnXnXbXbXbXbX XmXCXJ./..XbXmX",
"G x.CXq W f.~ ( / ~ ! / / ~ ~ d.~ ( ( ( ( ( / ~ ~ / ~ ~ ~ g.*.y U / / ~ ~ a.~ ~ ~ ~ ~ ( ~ / / a.a.a.~ d.~ a.( d.~ ( B.L c d.( nX",
"G x.v.q W f.d.d.nX/ d.( d.d.d.d.d./ d.d.d.~ / d./ / d.d.d.g.yXy U f./ d./ d./ / d.d.d.d.d.d.d.( / d.d.d.d.d.( d.d.! M.i v f.( / ",
"D x.v.q I d.( d.d.d./ / d.d.d./ d.d.( a.s.a.( d./ d.d.d.a.g.iXy U d./ / ( s.d.d.d./ / d.d.d.d.d.d.a.d.d./ d.d.( / ~ M.i N f./ nX",
"G x.v.q W d./ / ( d.d.d.d.d./ d./ d.f.d./ d.d.( ( ( d.d.a.g.yXS U MXd.d.d.( d.a.d.d.d.d.d.( / d.d./ / d.g.XXd.d.d.d.M.i /.d.( d.",
"D x.CXq W f.XXnXd.f.g.d.d.d./ d.d.d.d.d./ d.nXf.f.d.d.d.d.g.*.y {.f.d.nXd.d.a.d.d.d.g.d.d.d.d.d.d.f.d.d.d.d.d.nXnXd.M.i n f.( d."
};
